<?xml version="1.0" encoding="UTF-8" standalone="no"?><svg xmlns="http://www.w3.org/2000/svg" xmlns:xlink="http://www.w3.org/1999/xlink" contentStyleType="text/css" height="450px" preserveAspectRatio="none" style="width:593px;height:450px;background:#FFFFFF;" version="1.1" viewBox="0 0 593 450" width="593px" zoomAndPan="magnify"><defs/><g><rect fill="none" height="26.2969" id="_title" style="stroke:none;stroke-width:1.0;" width="170" x="204.75" y="5"/><text fill="#000000" font-family="sans-serif" font-size="14" font-weight="bold" lengthAdjust="spacing" textLength="160" x="209.75" y="22.9951">Component Diagram</text><!--MD5=[4541fb81c80c07473fe4b07432ef0971]
entity app--><g id="elem_app"><rect fill="#F1F1F1" height="62.5938" rx="2.5" ry="2.5" style="stroke:#181818;stroke-width:0.5;" width="157" x="177" y="44.2969"/><rect fill="#F1F1F1" height="10" style="stroke:#181818;stroke-width:0.5;" width="15" x="314" y="49.2969"/><rect fill="#F1F1F1" height="2" style="stroke:#181818;stroke-width:0.5;" width="4" x="312" y="51.2969"/><rect fill="#F1F1F1" height="2" style="stroke:#181818;stroke-width:0.5;" width="4" x="312" y="55.2969"/><text fill="#000000" font-family="sans-serif" font-size="14" font-style="italic" lengthAdjust="spacing" textLength="98" x="201.5" y="77.292">«component»</text><text fill="#000000" font-family="sans-serif" font-size="14" lengthAdjust="spacing" textLength="117" x="192" y="93.5889">React Native App</text></g><!--MD5=[dd82451e1dd92fe3da01853750f49ff6]
entity server--><g id="elem_server"><rect fill="#F1F1F1" height="62.5938" rx="2.5" ry="2.5" style="stroke:#181818;stroke-width:0.5;" width="143" x="184" y="213.2969"/><rect fill="#F1F1F1" height="10" style="stroke:#181818;stroke-width:0.5;" width="15" x="307" y="218.2969"/><rect fill="#F1F1F1" height="2" style="stroke:#181818;stroke-width:0.5;" width="4" x="305" y="220.2969"/><rect fill="#F1F1F1" height="2" style="stroke:#181818;stroke-width:0.5;" width="4" x="305" y="224.2969"/><text fill="#000000" font-family="sans-serif" font-size="14" font-style="italic" lengthAdjust="spacing" textLength="98" x="201.5" y="246.292">«component»</text><text fill="#000000" font-family="sans-serif" font-size="14" lengthAdjust="spacing" textLength="103" x="199" y="262.5889">Express Server</text></g><!--MD5=[7468467f3b6b392f1d176d828c753b77]
entity db--><g id="elem_db"><rect fill="#F1F1F1" height="62.5938" rx="2.5" ry="2.5" style="stroke:#181818;stroke-width:0.5;" width="121" x="7" y="382.2969"/><rect fill="#F1F1F1" height="10" style="stroke:#181818;stroke-width:0.5;" width="15" x="108" y="387.2969"/><rect fill="#F1F1F1" height="2" style="stroke:#181818;stroke-width:0.5;" width="4" x="106" y="389.2969"/><rect fill="#F1F1F1" height="2" style="stroke:#181818;stroke-width:0.5;" width="4" x="106" y="393.2969"/><text fill="#000000" font-family="sans-serif" font-size="14" font-style="italic" lengthAdjust="spacing" textLength="81" x="22" y="415.292">«database»</text><text fill="#000000" font-family="sans-serif" font-size="14" lengthAdjust="spacing" textLength="69" x="28" y="431.5889">MongoDB</text></g><!--MD5=[a5a6ae0ba01c8a4589ab26bd33e87aad]
entity storage--><g id="elem_storage"><rect fill="#F1F1F1" height="62.5938" rx="2.5" ry="2.5" style="stroke:#181818;stroke-width:0.5;" width="173" x="169" y="382.2969"/><rect fill="#F1F1F1" height="10" style="stroke:#181818;stroke-width:0.5;" width="15" x="322" y="387.2969"/><rect fill="#F1F1F1" height="2" style="stroke:#181818;stroke-width:0.5;" width="4" x="320" y="389.2969"/><rect fill="#F1F1F1" height="2" style="stroke:#181818;stroke-width:0.5;" width="4" x="320" y="393.2969"/><text fill="#000000" font-family="sans-serif" font-size="14" font-style="italic" lengthAdjust="spacing" textLength="98" x="201.5" y="415.292">«component»</text><text fill="#000000" font-family="sans-serif" font-size="14" lengthAdjust="spacing" textLength="133" x="184" y="431.5889">Azure Blob Storage</text></g><!--MD5=[923d49e64e6eb8d65c71cdf5e1673809]
entity OCR--><g id="elem_OCR"><rect fill="#F1F1F1" height="62.5938" rx="2.5" ry="2.5" style="stroke:#181818;stroke-width:0.5;" width="210" x="377.5" y="382.2969"/><rect fill="#F1F1F1" height="10" style="stroke:#181818;stroke-width:0.5;" width="15" x="567.5" y="387.2969"/><rect fill="#F1F1F1" height="2" style="stroke:#181818;stroke-width:0.5;" width="4" x="565.5" y="389.2969"/><rect fill="#F1F1F1" height="2" style="stroke:#181818;stroke-width:0.5;" width="4" x="565.5" y="393.2969"/><text fill="#000000" font-family="sans-serif" font-size="14" font-style="italic" lengthAdjust="spacing" textLength="98" x="428.5" y="415.292">«component»</text><text fill="#000000" font-family="sans-serif" font-size="14" lengthAdjust="spacing" textLength="170" x="392.5" y="431.5889">Azure Cognitive Services</text></g><!--MD5=[62619b799784d2d5aa5f3c2934ca515d]
link app to server--><g id="link_app_server"><path d="M255.5,107.4269 C255.5,137.4669 255.5,183.0069 255.5,213.0769 " fill="none" id="app-server" style="stroke:#181818;stroke-width:1.0;"/><text fill="#000000" font-family="sans-serif" font-size="13" lengthAdjust="spacing" textLength="48" x="286" y="157.3638">«REST»</text><text fill="#000000" font-family="sans-serif" font-size="13" lengthAdjust="spacing" textLength="89" x="267.5" y="172.4966">Query Journey</text><path d="M262.5711,153.1696 A10,10 0 0 0 248.4289 153.1696" fill="none" style="stroke:#181818;stroke-width:1.5;"/><ellipse cx="255.5" cy="160.2406" fill="#FFFFFF" rx="6" ry="6" style="stroke:#181818;stroke-width:1.5;"/></g><!--MD5=[2927d3a781a947e921db6647bd449b94]
link server to db--><g id="link_server_db"><path d="M183.92,259.0169 C154.21,267.8469 121.59,282.4069 99.5,306.2969 C80.36,326.9869 72.64,358.7169 69.55,382.1669 " fill="none" id="server-db" style="stroke:#181818;stroke-width:1.0;"/><text fill="#000000" font-family="sans-serif" font-size="13" lengthAdjust="spacing" textLength="60" x="141.5" y="326.3638">«NoSQL»</text><text fill="#000000" font-family="sans-serif" font-size="13" lengthAdjust="spacing" textLength="124" x="111.5" y="341.4966">Query Journey Data</text><path d="M109.4923,305.9057 A10,10 0 0 0 99.1088 296.3045" fill="none" style="stroke:#181818;stroke-width:1.5;"/><ellipse cx="99.5" cy="306.2969" fill="#FFFFFF" rx="6" ry="6" style="stroke:#181818;stroke-width:1.5;"/></g><!--MD5=[80875e73265cef3bc68209af52f22903]
link server to storage--><g id="link_server_storage"><path d="M255.5,276.4269 C255.5,306.4669 255.5,352.0069 255.5,382.0769 " fill="none" id="server-storage" style="stroke:#181818;stroke-width:1.0;"/><text fill="#000000" font-family="sans-serif" font-size="13" lengthAdjust="spacing" textLength="48" x="300" y="326.3638">«REST»</text><text fill="#000000" font-family="sans-serif" font-size="13" lengthAdjust="spacing" textLength="121" x="267.5" y="341.4966">Query Image Blobs</text><path d="M262.5711,322.1696 A10,10 0 0 0 248.4289 322.1696" fill="none" style="stroke:#181818;stroke-width:1.5;"/><ellipse cx="255.5" cy="329.2406" fill="#FFFFFF" rx="6" ry="6" style="stroke:#181818;stroke-width:1.5;"/></g><!--MD5=[e059671d00ed243f2b4ef1dd5eb77315]
link server to OCR--><g id="link_server_OCR"><path d="M327.25,265.8469 C353.27,275.3669 381.82,288.6169 404.5,306.2969 C430.89,326.8669 452.55,358.6169 466.29,382.0969 " fill="none" id="server-OCR" style="stroke:#181818;stroke-width:1.0;"/><text fill="#000000" font-family="sans-serif" font-size="13" lengthAdjust="spacing" textLength="48" x="487.5" y="326.3638">«REST»</text><text fill="#000000" font-family="sans-serif" font-size="13" lengthAdjust="spacing" textLength="116" x="457.5" y="341.4966">Query OCR results</text><path d="M403.2705,296.3727 A10,10 0 0 0 394.5759 307.5263" fill="none" style="stroke:#181818;stroke-width:1.5;"/><ellipse cx="404.5" cy="306.2969" fill="#FFFFFF" rx="6" ry="6" style="stroke:#181818;stroke-width:1.5;"/></g><!--MD5=[b146bbe6bec1636cbdfe9d49e1b994cf]
@startuml
Title Component Diagram
component "React Native App" <<component>> as app
component "Express Server" <<component>> as server
component "MongoDB" <<database>>  as db
component "Azure Blob Storage" <<component>>  as storage
component "Azure Cognitive Services" <<component>>  as OCR

app -(0- server : "<<REST>> \n Query Journey "
server -(0- db : "<<NoSQL>> \n Query Journey Data "
server -(0- storage : "<<REST>> \n Query Image Blobs"
server -(0- OCR : ""<<REST>> \n Query OCR results""

@enduml

PlantUML version 1.2022.7(Mon Aug 22 19:01:30 CEST 2022)
(GPL source distribution)
Java Runtime: OpenJDK Runtime Environment
JVM: OpenJDK 64-Bit Server VM
Default Encoding: UTF-8
Language: en
Country: US
--></g></svg>