<?xml version="1.0" encoding="UTF-8" standalone="no"?><svg xmlns="http://www.w3.org/2000/svg" xmlns:xlink="http://www.w3.org/1999/xlink" contentStyleType="text/css" height="281px" preserveAspectRatio="none" style="width:439px;height:281px;background:#FFFFFF;" version="1.1" viewBox="0 0 439 281" width="439px" zoomAndPan="magnify"><defs/><g><rect fill="none" height="26.2969" id="_title" style="stroke:none;stroke-width:1.0;" width="170" x="127.75" y="5"/><text fill="#000000" font-family="sans-serif" font-size="14" font-weight="bold" lengthAdjust="spacing" textLength="160" x="132.75" y="22.9951">Component Diagram</text><!--MD5=[4541fb81c80c07473fe4b07432ef0971]
entity app--><g id="elem_app"><rect fill="#F1F1F1" height="62.5938" rx="2.5" ry="2.5" style="stroke:#181818;stroke-width:0.5;" width="157" x="128" y="44.2969"/><rect fill="#F1F1F1" height="10" style="stroke:#181818;stroke-width:0.5;" width="15" x="265" y="49.2969"/><rect fill="#F1F1F1" height="2" style="stroke:#181818;stroke-width:0.5;" width="4" x="263" y="51.2969"/><rect fill="#F1F1F1" height="2" style="stroke:#181818;stroke-width:0.5;" width="4" x="263" y="55.2969"/><text fill="#000000" font-family="sans-serif" font-size="14" font-style="italic" lengthAdjust="spacing" textLength="98" x="152.5" y="77.292">«component»</text><text fill="#000000" font-family="sans-serif" font-size="14" lengthAdjust="spacing" textLength="117" x="143" y="93.5889">React Native App</text></g><!--MD5=[a5a6ae0ba01c8a4589ab26bd33e87aad]
entity storage--><g id="elem_storage"><rect fill="#F1F1F1" height="62.5938" rx="2.5" ry="2.5" style="stroke:#181818;stroke-width:0.5;" width="173" x="7" y="213.2969"/><rect fill="#F1F1F1" height="10" style="stroke:#181818;stroke-width:0.5;" width="15" x="160" y="218.2969"/><rect fill="#F1F1F1" height="2" style="stroke:#181818;stroke-width:0.5;" width="4" x="158" y="220.2969"/><rect fill="#F1F1F1" height="2" style="stroke:#181818;stroke-width:0.5;" width="4" x="158" y="224.2969"/><text fill="#000000" font-family="sans-serif" font-size="14" font-style="italic" lengthAdjust="spacing" textLength="98" x="39.5" y="246.292">«component»</text><text fill="#000000" font-family="sans-serif" font-size="14" lengthAdjust="spacing" textLength="133" x="22" y="262.5889">Azure Blob Storage</text></g><!--MD5=[923d49e64e6eb8d65c71cdf5e1673809]
entity OCR--><g id="elem_OCR"><rect fill="#F1F1F1" height="62.5938" rx="2.5" ry="2.5" style="stroke:#181818;stroke-width:0.5;" width="210" x="215.5" y="213.2969"/><rect fill="#F1F1F1" height="10" style="stroke:#181818;stroke-width:0.5;" width="15" x="405.5" y="218.2969"/><rect fill="#F1F1F1" height="2" style="stroke:#181818;stroke-width:0.5;" width="4" x="403.5" y="220.2969"/><rect fill="#F1F1F1" height="2" style="stroke:#181818;stroke-width:0.5;" width="4" x="403.5" y="224.2969"/><text fill="#000000" font-family="sans-serif" font-size="14" font-style="italic" lengthAdjust="spacing" textLength="98" x="266.5" y="246.292">«component»</text><text fill="#000000" font-family="sans-serif" font-size="14" lengthAdjust="spacing" textLength="170" x="230.5" y="262.5889">Azure Cognitive Services</text></g><!--MD5=[91b8be4ba1d44c3dc21a79c4d5c97a4a]
link app to storage--><g id="link_app_storage"><path d="M164.43,107.4869 C154.34,116.2769 144.26,126.4569 136.5,137.2969 C120.03,160.3269 108.6,190.5769 101.69,212.9469 " fill="none" id="app-storage" style="stroke:#181818;stroke-width:1.0;"/><text fill="#000000" font-family="sans-serif" font-size="13" lengthAdjust="spacing" textLength="48" x="181" y="157.3638">«REST»</text><text fill="#000000" font-family="sans-serif" font-size="13" lengthAdjust="spacing" textLength="121" x="148.5" y="172.4966">Query Image Blobs</text><path d="M146.3657,135.6632 A10,10 0 0 0 134.8663 127.4312" fill="none" style="stroke:#181818;stroke-width:1.5;"/><ellipse cx="136.5" cy="137.2969" fill="#FFFFFF" rx="6" ry="6" style="stroke:#181818;stroke-width:1.5;"/></g><!--MD5=[2e63376d26fc0c540b7fe1dcb92b6e95]
link app to OCR--><g id="link_app_OCR"><path d="M252.66,107.5169 C263.2,116.1769 273.61,126.2769 281.5,137.2969 C297.9,160.1869 308.14,190.7369 314,213.2469 " fill="none" id="app-OCR" style="stroke:#181818;stroke-width:1.0;"/><text fill="#000000" font-family="sans-serif" font-size="13" lengthAdjust="spacing" textLength="48" x="345.5" y="157.3638">«REST»</text><text fill="#000000" font-family="sans-serif" font-size="13" lengthAdjust="spacing" textLength="116" x="315.5" y="172.4966">Query OCR results</text><path d="M283.133,127.4311 A10,10 0 0 0 271.6342 135.6639" fill="none" style="stroke:#181818;stroke-width:1.5;"/><ellipse cx="281.5" cy="137.2969" fill="#FFFFFF" rx="6" ry="6" style="stroke:#181818;stroke-width:1.5;"/></g><!--MD5=[163ce8d7103d242b4951ae64368489ed]
@startuml
Title Component Diagram
component "React Native App" <<component>> as app
component "Azure Blob Storage" <<component>>  as storage
component "Azure Cognitive Services" <<component>>  as OCR

app -(0- storage : "<<REST>> \n Query Image Blobs"
app -(0- OCR : ""<<REST>> \n Query OCR results""

@enduml

PlantUML version 1.2022.7(Mon Aug 22 19:01:30 CEST 2022)
(GPL source distribution)
Java Runtime: OpenJDK Runtime Environment
JVM: OpenJDK 64-Bit Server VM
Default Encoding: UTF-8
Language: en
Country: US
--></g></svg>