<?xml version="1.0" encoding="UTF-8" standalone="no"?><svg xmlns="http://www.w3.org/2000/svg" xmlns:xlink="http://www.w3.org/1999/xlink" contentStyleType="text/css" height="518px" preserveAspectRatio="none" style="width:628px;height:518px;background:#FFFFFF;" version="1.1" viewBox="0 0 628 518" width="628px" zoomAndPan="magnify"><defs/><g><rect fill="none" height="26.2969" id="_title" style="stroke:none;stroke-width:1.0;" width="173" x="220.9545" y="5"/><text fill="#000000" font-family="sans-serif" font-size="14" font-weight="bold" lengthAdjust="spacing" textLength="163" x="225.9545" y="22.9951">Deployment Diagram</text><!--MD5=[7afea78ea3e2dfbc9b2261ae2e330c51]
cluster phone--><g id="cluster_phone"><polygon fill="none" points="24.5,162.2969,34.5,152.2969,255.5,152.2969,255.5,491.7969,245.5,501.7969,24.5,501.7969,24.5,162.2969" style="stroke:#181818;stroke-width:1.0;"/><line style="stroke:#181818;stroke-width:1.0;" x1="245.5" x2="255.5" y1="162.2969" y2="152.2969"/><line style="stroke:#181818;stroke-width:1.0;" x1="24.5" x2="245.5" y1="162.2969" y2="162.2969"/><line style="stroke:#181818;stroke-width:1.0;" x1="245.5" x2="245.5" y1="162.2969" y2="501.7969"/><text fill="#000000" font-family="sans-serif" font-size="14" font-style="italic" lengthAdjust="spacing" textLength="64" x="104" y="178.292">«device»</text><text fill="#000000" font-family="sans-serif" font-size="14" font-weight="bold" lengthAdjust="spacing" textLength="96" x="88" y="194.5889">Smartphone</text></g><!--MD5=[08e37497c99580f062c60b0fe3648110]
cluster expo--><g id="cluster_expo"><polygon fill="none" points="64.5,234.2969,74.5,224.2969,223.5,224.2969,223.5,342.2969,213.5,352.2969,64.5,352.2969,64.5,234.2969" style="stroke:#181818;stroke-width:1.0;"/><line style="stroke:#181818;stroke-width:1.0;" x1="213.5" x2="223.5" y1="234.2969" y2="224.2969"/><line style="stroke:#181818;stroke-width:1.0;" x1="64.5" x2="213.5" y1="234.2969" y2="234.2969"/><line style="stroke:#181818;stroke-width:1.0;" x1="213.5" x2="213.5" y1="234.2969" y2="352.2969"/><text fill="#000000" font-family="sans-serif" font-size="14" font-style="italic" lengthAdjust="spacing" textLength="83" x="98.5" y="250.292">«container»</text><text fill="#000000" font-family="sans-serif" font-size="14" font-weight="bold" lengthAdjust="spacing" textLength="65" x="107.5" y="266.5889">Expo Go</text></g><!--MD5=[f50ff5e4cd64f259303fc83dba1819fc]
entity database--><g id="elem_database"><path d="M87,425.7969 C87,415.7969 146.5,415.7969 146.5,415.7969 C146.5,415.7969 206,415.7969 206,425.7969 L206,467.3906 C206,477.3906 146.5,477.3906 146.5,477.3906 C146.5,477.3906 87,477.3906 87,467.3906 L87,425.7969 " fill="#F1F1F1" style="stroke:#181818;stroke-width:0.5;"/><path d="M87,425.7969 C87,435.7969 146.5,435.7969 146.5,435.7969 C146.5,435.7969 206,435.7969 206,425.7969 " fill="none" style="stroke:#181818;stroke-width:0.5;"/><text fill="#000000" font-family="sans-serif" font-size="14" font-style="italic" lengthAdjust="spacing" textLength="81" x="106" y="452.792">«database»</text><text fill="#000000" font-family="sans-serif" font-size="14" lengthAdjust="spacing" textLength="99" x="97" y="469.0889">Async Storage</text></g><!--MD5=[4541fb81c80c07473fe4b07432ef0971]
entity app--><g id="elem_app"><rect fill="#F1F1F1" height="55.5938" rx="2.5" ry="2.5" style="stroke:#181818;stroke-width:0.5;" width="121" x="86" y="280.2969"/><polygon fill="#F1F1F1" points="190,285.2969,190,299.2969,202,299.2969,202,291.2969,196,285.2969,190,285.2969" style="stroke:#181818;stroke-width:0.5;"/><line style="stroke:#181818;stroke-width:0.5;" x1="196" x2="196" y1="285.2969" y2="291.2969"/><line style="stroke:#181818;stroke-width:0.5;" x1="202" x2="196" y1="291.2969" y2="291.2969"/><text fill="#000000" font-family="sans-serif" font-size="14" font-style="italic" lengthAdjust="spacing" textLength="64" x="109.5" y="306.292">«artifact»</text><text fill="#000000" font-family="sans-serif" font-size="14" lengthAdjust="spacing" textLength="91" x="96" y="322.5889">Logbook App</text></g><!--MD5=[923d49e64e6eb8d65c71cdf5e1673809]
entity OCR--><g id="elem_OCR"><path d="M288.9789,424.4201 C293.2211,418.1296 297.5851,417.8466 302.261,423.9556 C305.5992,418.3759 310.3401,418.9012 313.0774,424.5353 C316.1968,418.7613 322.0403,417.97 325.8729,423.7452 C329.9915,417.5178 333.8826,417.6326 337.6151,424.1022 C341.1512,416.2849 346.0841,415.4998 351.5221,422.2917 C355.8478,417.1616 359.2249,418.8238 362.0632,423.8373 C365.4593,418.789 371.3669,418.2589 374.6278,423.9948 C378.3072,417.9171 384.6438,417.6233 387.5878,424.7184 C391.0228,419.1202 397.2174,418.9002 400.5814,424.7986 C404.0852,419.7205 407.2411,419.8782 411.0037,424.5211 C418.5495,426.3069 420.9309,429.8529 416.5176,436.946 C422.7359,437.4976 425.1782,441.2234 421.6022,446.819 C425.9086,452.2082 423.1585,457.5283 416.7841,458.5192 C421.5225,463.7252 419.6023,469.2559 412.9613,470.9672 C408.4858,477.6837 403.0934,476.7298 398.7395,470.8303 C397.0183,476.836 392.6676,477.6177 388.5852,473.111 C384.5701,479.1236 379.7609,479.0798 375.7546,473.1016 C371.8161,479.345 367.138,480.0235 362.5431,473.7971 C359.6078,479.6543 355.57,479.8443 351.5467,474.9052 C347.3255,481.0977 342.8822,480.6493 338.8727,474.6845 C334.7649,481.0159 328.1068,479.9143 324.9504,473.6342 C321.1003,478.6329 316.6295,477.5836 314.5778,471.8896 C310.3247,478.1804 306.4402,477.1673 302.1097,471.9736 C298.5132,477.436 292.7006,478.0566 289.1061,471.9713 C281.1986,469.8648 280.1296,464.4104 284.6445,458.2613 C278.5306,456.6257 277.5535,451.0925 281.6803,446.8068 C278.5871,441.6344 280.4366,436.9541 286.7334,436.296 C282.3383,431.6299 283.234,427.1689 288.9789,424.4201 " fill="#F1F1F1" style="stroke:#181818;stroke-width:0.5;"/><text fill="#000000" font-family="sans-serif" font-size="14" font-style="italic" lengthAdjust="spacing" textLength="109" x="295" y="443.292">«cloud service»</text><text fill="#000000" font-family="sans-serif" font-size="14" lengthAdjust="spacing" textLength="75" x="312" y="459.5889">Azure OCR</text></g><!--MD5=[a5a6ae0ba01c8a4589ab26bd33e87aad]
entity storage--><g id="elem_storage"><path d="M462.2434,423.7403 C465.9757,417.512 471.882,417.6039 475.1353,424.221 C478.4805,419.2049 483.2852,419.3646 486.7298,424.1028 C491.5208,418.1043 496.0747,416.6877 500.6788,424.2945 C503.1183,418.7712 508.0501,418.7135 511.3419,423.4047 C513.8028,417.2878 519.8703,416.6523 523.688,421.9352 C527.1956,417.2113 533.1618,417.2439 535.5147,423.2123 C539.5493,416.6867 544.8198,417.7689 548.2704,423.8053 C552.0302,416.9907 556.0622,416.7464 560.4589,423.2212 C564.3244,417.6886 569.7206,417.8501 573.4263,423.4079 C578.0933,418.1425 581.71,418.77 584.968,424.8422 C588.5185,417.874 592.6358,417.8489 597.3669,423.7004 C601.2418,416.82 607.4713,418.1275 610.8649,424.2019 C616.9891,427.1658 617.6529,431.7739 613.4135,436.8295 C619.6386,438.3299 621.1786,443.2643 616.7754,447.9716 C621.9089,453.2406 621.5609,457.7515 614.0389,460.1849 C618.3197,464.9592 616.5225,469.4923 610.456,470.7614 C606.4055,475.8638 602.6842,477.6591 598.1725,471.2537 C594.9725,478.0783 588.7191,477.8331 584.9946,471.7908 C581.5677,477.5844 576.7653,477.2386 573.7707,471.3745 C570.8935,478.6052 565.4921,478.3211 560.8662,473.2018 C556.1073,478.9093 551.9361,478.6282 548.33,472.0277 C545.0522,477.9601 540.9213,479.8099 535.8,473.9938 C532.4132,479.6761 526.4647,480.0328 523.6966,473.3865 C520.252,478.9562 515.2858,478.1443 512.8291,472.4347 C508.8899,478.1054 503.4188,477.9032 499.6813,472.2015 C495.8139,477.8598 490.2619,477.6211 487.2141,471.3452 C483.283,477.1803 478.5464,475.5366 475.4795,470.4193 C472.5699,476.8797 467.7581,477.5465 463.2706,472.0276 C456.1947,468.7761 456.9442,464.5769 461.4899,459.653 C455.3726,456.3324 456.4035,451.7104 461.5755,448.4763 C456.0555,444.508 456.194,439.621 462.59,436.6772 C456.0043,433.1898 455.5546,427.5834 462.2434,423.7403 " fill="#F1F1F1" style="stroke:#181818;stroke-width:0.5;"/><text fill="#000000" font-family="sans-serif" font-size="14" font-style="italic" lengthAdjust="spacing" textLength="109" x="481" y="443.292">«cloud service»</text><text fill="#000000" font-family="sans-serif" font-size="14" lengthAdjust="spacing" textLength="133" x="469" y="459.5889">Azure Blob Storage</text></g><!--MD5=[8fc3522a43f8c7199df5e09e5bb0188e]
entity user--><g id="elem_user"><ellipse cx="32.5" cy="52.3321" fill="#F1F1F1" rx="9.0352" ry="9.0352" style="stroke:#181818;stroke-width:0.5;"/><rect fill="#F1F1F1" height="36.2969" rx="9.0352" ry="9.0352" style="stroke:#181818;stroke-width:0.5;" width="51" x="7" y="61.3673"/><text fill="#000000" font-family="sans-serif" font-size="14" lengthAdjust="spacing" textLength="31" x="17" y="84.3624">user</text></g><!--MD5=[1fe1c61ecc6eec344d35ee67901c27d0]
link app to database--><g id="link_app_database"><path d="M146.5,336.5869 C146.5,359.4669 146.5,392.0769 146.5,415.7069 " fill="none" id="app-database" style="stroke:#181818;stroke-width:1.0;"/></g><!--MD5=[ffbc213024f147ed60abfb8142da1314]
link user to phone--><g id="link_user_phone"><path d="M32.5,97.4569 C32.5,105.0169 32.5,113.8934 32.5,123.6481 C32.5,128.5254 32.5,133.6223 32.5,138.8839 C32.5,141.5147 32.5,144.1866 32.5,146.8929 C32.5,148.2461 32.5,149.6078 32.5,150.9773 C32.5,151.3196 32.5,151.6625 32.5,152.0058 " fill="none" id="user-to-phone" style="stroke:#181818;stroke-width:1.0;"/><polygon fill="#181818" points="32.5,152.0058,36.5,143.0058,32.5,147.0058,28.5,143.0058,32.5,152.0058" style="stroke:#181818;stroke-width:1.0;"/></g><!--MD5=[2e63376d26fc0c540b7fe1dcb92b6e95]
link app to OCR--><g id="link_app_OCR"><path d="M195.52,336.3369 C212.28,345.9969 230.95,357.2369 247.5,368.2969 C269.32,382.8769 292.69,400.4869 311.56,415.2269 " fill="none" id="app-OCR" style="stroke:#181818;stroke-width:1.0;"/><text fill="#000000" font-family="sans-serif" font-size="13" lengthAdjust="spacing" textLength="32" x="271.5" y="381.3638">HTTP</text></g><!--MD5=[91b8be4ba1d44c3dc21a79c4d5c97a4a]
link app to storage--><g id="link_app_storage"><path d="M207.28,330.6269 C273.63,353.9069 380.22,391.3069 453.83,417.1369 " fill="none" id="app-storage" style="stroke:#181818;stroke-width:1.0;"/><text fill="#000000" font-family="sans-serif" font-size="13" lengthAdjust="spacing" textLength="32" x="353.5" y="381.3638">HTTP</text></g><!--MD5=[296276cc452791a2eb800420af71ce67]
@startuml
title Deployment Diagram

node Smartphone <<device>> as phone {
    node "Expo Go" <<container>> as expo {
        artifact "Logbook App" <<artifact>> as app
    }
    database "Async Storage" <<database>> as database 
}

cloud "Azure OCR" <<cloud service>> as OCR

cloud "Azure Blob Storage" <<cloud service>> as storage

person user

app - - database
user - -> phone
app - - OCR : HTTP
app - - storage : HTTP

@enduml

PlantUML version 1.2022.7(Mon Aug 22 19:01:30 CEST 2022)
(GPL source distribution)
Java Runtime: OpenJDK Runtime Environment
JVM: OpenJDK 64-Bit Server VM
Default Encoding: UTF-8
Language: en
Country: US
--></g></svg>