<?xml version="1.0" encoding="UTF-8" standalone="no"?><svg xmlns="http://www.w3.org/2000/svg" xmlns:xlink="http://www.w3.org/1999/xlink" contentStyleType="text/css" height="617px" preserveAspectRatio="none" style="width:562px;height:617px;background:#FFFFFF;" version="1.1" viewBox="0 0 562 617" width="562px" zoomAndPan="magnify"><defs/><g><rect fill="none" height="26.2969" id="_title" style="stroke:none;stroke-width:1.0;" width="157" x="203.5" y="10"/><text fill="#000000" font-family="sans-serif" font-size="14" font-weight="bold" lengthAdjust="spacing" textLength="147" x="208.5" y="27.9951">Journey Start / End</text><rect fill="#FFFFFF" height="377.0391" style="stroke:#181818;stroke-width:1.0;" width="10" x="175" y="149.7266"/><rect fill="#FFFFFF" height="53.2656" style="stroke:#181818;stroke-width:1.0;" width="10" x="343" y="178.8594"/><rect fill="#FFFFFF" height="58.2656" style="stroke:#181818;stroke-width:1.0;" width="10" x="343" y="276.0625"/><rect fill="#FFFFFF" height="29.1328" style="stroke:#181818;stroke-width:1.0;" width="10" x="478.5" y="276.0625"/><rect fill="none" height="148.4688" style="stroke:#000000;stroke-width:1.5;" width="405.5" x="149.5" y="193.8594"/><rect fill="none" height="134.3047" style="stroke:#000000;stroke-width:1.5;" width="545" x="10" y="385.4609"/><line style="stroke:#181818;stroke-width:0.5;stroke-dasharray:5.0,5.0;" x1="39" x2="39" y1="118.5938" y2="536.7656"/><line style="stroke:#181818;stroke-width:0.5;stroke-dasharray:5.0,5.0;" x1="179.5" x2="179.5" y1="118.5938" y2="536.7656"/><line style="stroke:#181818;stroke-width:0.5;stroke-dasharray:5.0,5.0;" x1="348" x2="348" y1="118.5938" y2="536.7656"/><line style="stroke:#181818;stroke-width:0.5;stroke-dasharray:5.0,5.0;" x1="483" x2="483" y1="118.5938" y2="536.7656"/><text fill="#000000" font-family="sans-serif" font-size="14" lengthAdjust="spacing" textLength="32" x="20" y="115.292">User</text><ellipse cx="39" cy="50.7969" fill="#E2E2F0" rx="8" ry="8" style="stroke:#181818;stroke-width:0.5;"/><path d="M39,58.7969 L39,85.7969 M26,66.7969 L52,66.7969 M39,85.7969 L26,100.7969 M39,85.7969 L52,100.7969 " fill="none" style="stroke:#181818;stroke-width:0.5;"/><text fill="#000000" font-family="sans-serif" font-size="14" lengthAdjust="spacing" textLength="32" x="20" y="548.7607">User</text><ellipse cx="39" cy="560.5625" fill="#E2E2F0" rx="8" ry="8" style="stroke:#181818;stroke-width:0.5;"/><path d="M39,568.5625 L39,595.5625 M26,576.5625 L52,576.5625 M39,595.5625 L26,610.5625 M39,595.5625 L52,610.5625 " fill="none" style="stroke:#181818;stroke-width:0.5;"/><rect fill="#E2E2F0" height="30.2969" rx="2.5" ry="2.5" style="stroke:#181818;stroke-width:0.5;" width="41" x="159.5" y="87.2969"/><text fill="#000000" font-family="sans-serif" font-size="14" lengthAdjust="spacing" textLength="27" x="166.5" y="107.292">App</text><rect fill="#E2E2F0" height="30.2969" rx="2.5" ry="2.5" style="stroke:#181818;stroke-width:0.5;" width="41" x="159.5" y="535.7656"/><text fill="#000000" font-family="sans-serif" font-size="14" lengthAdjust="spacing" textLength="27" x="166.5" y="555.7607">App</text><rect fill="#E2E2F0" height="30.2969" rx="2.5" ry="2.5" style="stroke:#181818;stroke-width:0.5;" width="128" x="284" y="87.2969"/><text fill="#000000" font-family="sans-serif" font-size="14" lengthAdjust="spacing" textLength="114" x="291" y="107.292">Handling Service</text><rect fill="#E2E2F0" height="30.2969" rx="2.5" ry="2.5" style="stroke:#181818;stroke-width:0.5;" width="128" x="284" y="535.7656"/><text fill="#000000" font-family="sans-serif" font-size="14" lengthAdjust="spacing" textLength="114" x="291" y="555.7607">Handling Service</text><text fill="#000000" font-family="sans-serif" font-size="14" lengthAdjust="spacing" textLength="117" x="422" y="115.292">Azure Data Store</text><path d="M465.5,66.2969 C465.5,56.2969 483.5,56.2969 483.5,56.2969 C483.5,56.2969 501.5,56.2969 501.5,66.2969 L501.5,92.2969 C501.5,102.2969 483.5,102.2969 483.5,102.2969 C483.5,102.2969 465.5,102.2969 465.5,92.2969 L465.5,66.2969 " fill="#E2E2F0" style="stroke:#181818;stroke-width:1.5;"/><path d="M465.5,66.2969 C465.5,76.2969 483.5,76.2969 483.5,76.2969 C483.5,76.2969 501.5,76.2969 501.5,66.2969 " fill="none" style="stroke:#181818;stroke-width:1.5;"/><text fill="#000000" font-family="sans-serif" font-size="14" lengthAdjust="spacing" textLength="117" x="422" y="548.7607">Azure Data Store</text><path d="M465.5,562.0625 C465.5,552.0625 483.5,552.0625 483.5,552.0625 C483.5,552.0625 501.5,552.0625 501.5,562.0625 L501.5,588.0625 C501.5,598.0625 483.5,598.0625 483.5,598.0625 C483.5,598.0625 465.5,598.0625 465.5,588.0625 L465.5,562.0625 " fill="#E2E2F0" style="stroke:#181818;stroke-width:1.5;"/><path d="M465.5,562.0625 C465.5,572.0625 483.5,572.0625 483.5,572.0625 C483.5,572.0625 501.5,572.0625 501.5,562.0625 " fill="none" style="stroke:#181818;stroke-width:1.5;"/><rect fill="#FFFFFF" height="377.0391" style="stroke:#181818;stroke-width:1.0;" width="10" x="175" y="149.7266"/><rect fill="#FFFFFF" height="53.2656" style="stroke:#181818;stroke-width:1.0;" width="10" x="343" y="178.8594"/><rect fill="#FFFFFF" height="58.2656" style="stroke:#181818;stroke-width:1.0;" width="10" x="343" y="276.0625"/><rect fill="#FFFFFF" height="29.1328" style="stroke:#181818;stroke-width:1.0;" width="10" x="478.5" y="276.0625"/><polygon fill="#181818" points="163,145.7266,173,149.7266,163,153.7266,167,149.7266" style="stroke:#181818;stroke-width:1.0;"/><line style="stroke:#181818;stroke-width:1.0;" x1="39" x2="169" y1="149.7266" y2="149.7266"/><text fill="#000000" font-family="sans-serif" font-size="13" lengthAdjust="spacing" textLength="75" x="46" y="144.6606">Launch App</text><polygon fill="#181818" points="331,174.8594,341,178.8594,331,182.8594,335,178.8594" style="stroke:#181818;stroke-width:1.0;"/><line style="stroke:#181818;stroke-width:1.0;" x1="185" x2="337" y1="178.8594" y2="178.8594"/><text fill="#000000" font-family="sans-serif" font-size="13" lengthAdjust="spacing" textLength="139" x="192" y="173.7935">Cached Data Request</text><path d="M149.5,193.8594 L213.5,193.8594 L213.5,200.9922 L203.5,210.9922 L149.5,210.9922 L149.5,193.8594 " fill="#EEEEEE" style="stroke:#000000;stroke-width:1.5;"/><rect fill="none" height="148.4688" style="stroke:#000000;stroke-width:1.5;" width="405.5" x="149.5" y="193.8594"/><text fill="#000000" font-family="sans-serif" font-size="13" font-weight="bold" lengthAdjust="spacing" textLength="19" x="164.5" y="206.9263">alt</text><text fill="#000000" font-family="sans-serif" font-size="11" font-weight="bold" lengthAdjust="spacing" textLength="105" x="228.5" y="206.0698">[Data is cached]</text><polygon fill="#181818" points="196,228.125,186,232.125,196,236.125,192,232.125" style="stroke:#181818;stroke-width:1.0;"/><line style="stroke:#181818;stroke-width:1.0;stroke-dasharray:2.0,2.0;" x1="190" x2="347" y1="232.125" y2="232.125"/><text fill="#000000" font-family="sans-serif" font-size="13" lengthAdjust="spacing" textLength="83" x="202" y="227.0591">Cached Data</text><line style="stroke:#000000;stroke-width:1.0;stroke-dasharray:2.0,2.0;" x1="149.5" x2="555" y1="241.125" y2="241.125"/><text fill="#000000" font-family="sans-serif" font-size="11" font-weight="bold" lengthAdjust="spacing" textLength="130" x="154.5" y="251.3354">[Data is not cached]</text><polygon fill="#181818" points="466.5,272.0625,476.5,276.0625,466.5,280.0625,470.5,276.0625" style="stroke:#181818;stroke-width:1.0;"/><line style="stroke:#181818;stroke-width:1.0;" x1="353" x2="472.5" y1="276.0625" y2="276.0625"/><text fill="#000000" font-family="sans-serif" font-size="13" lengthAdjust="spacing" textLength="87" x="360" y="270.9966">Data Request</text><polygon fill="#181818" points="364,301.1953,354,305.1953,364,309.1953,360,305.1953" style="stroke:#181818;stroke-width:1.0;"/><line style="stroke:#181818;stroke-width:1.0;stroke-dasharray:2.0,2.0;" x1="358" x2="482.5" y1="305.1953" y2="305.1953"/><text fill="#000000" font-family="sans-serif" font-size="13" lengthAdjust="spacing" textLength="31" x="370" y="300.1294">Data</text><polygon fill="#181818" points="196,330.3281,186,334.3281,196,338.3281,192,334.3281" style="stroke:#181818;stroke-width:1.0;"/><line style="stroke:#181818;stroke-width:1.0;stroke-dasharray:2.0,2.0;" x1="190" x2="347" y1="334.3281" y2="334.3281"/><text fill="#000000" font-family="sans-serif" font-size="13" lengthAdjust="spacing" textLength="31" x="202" y="329.2622">Data</text><polygon fill="#181818" points="50,366.4609,40,370.4609,50,374.4609,46,370.4609" style="stroke:#181818;stroke-width:1.0;"/><line style="stroke:#181818;stroke-width:1.0;stroke-dasharray:2.0,2.0;" x1="44" x2="174" y1="370.4609" y2="370.4609"/><text fill="#000000" font-family="sans-serif" font-size="13" lengthAdjust="spacing" textLength="112" x="56" y="365.395">Stored Odometer</text><path d="M10,385.4609 L74,385.4609 L74,392.5938 L64,402.5938 L10,402.5938 L10,385.4609 " fill="#EEEEEE" style="stroke:#000000;stroke-width:1.5;"/><rect fill="none" height="134.3047" style="stroke:#000000;stroke-width:1.5;" width="545" x="10" y="385.4609"/><text fill="#000000" font-family="sans-serif" font-size="13" font-weight="bold" lengthAdjust="spacing" textLength="19" x="25" y="398.5278">alt</text><text fill="#000000" font-family="sans-serif" font-size="11" font-weight="bold" lengthAdjust="spacing" textLength="92" x="89" y="397.6714">[correct state]</text><polygon fill="#181818" points="163,419.7266,173,423.7266,163,427.7266,167,423.7266" style="stroke:#181818;stroke-width:1.0;"/><line style="stroke:#181818;stroke-width:1.0;" x1="39" x2="169" y1="423.7266" y2="423.7266"/><text fill="#000000" font-family="sans-serif" font-size="13" lengthAdjust="spacing" textLength="50" x="46" y="418.6606">Confirm</text><line style="stroke:#000000;stroke-width:1.0;stroke-dasharray:2.0,2.0;" x1="10" x2="555" y1="432.7266" y2="432.7266"/><text fill="#000000" font-family="sans-serif" font-size="11" font-weight="bold" lengthAdjust="spacing" textLength="104" x="15" y="442.937">[incorrect state]</text><polygon fill="#181818" points="163,463.6641,173,467.6641,163,471.6641,167,467.6641" style="stroke:#181818;stroke-width:1.0;"/><line style="stroke:#181818;stroke-width:1.0;" x1="39" x2="169" y1="467.6641" y2="467.6641"/><text fill="#000000" font-family="sans-serif" font-size="13" lengthAdjust="spacing" textLength="39" x="46" y="462.5981">Reject</text><rect fill="none" height="39.1016" style="stroke:#000000;stroke-width:1.5;" width="531" x="17" y="475.6641"/><path d="M17,475.6641 L83,475.6641 L83,482.6641 L73,492.6641 L17,492.6641 L17,475.6641 " fill="#EEEEEE" style="stroke:#000000;stroke-width:2.0;"/><text fill="#000000" font-family="sans-serif" font-size="13" font-weight="bold" lengthAdjust="spacing" textLength="21" x="30" y="489.731">ref</text><text fill="#000000" font-family="sans-serif" font-size="12" lengthAdjust="spacing" textLength="132" x="216.5" y="507.8027">Input Odometer Data</text><!--MD5=[2d0c02b7e0ce994ff3ab5faacac99634]
@startuml

' autonumber 

Title Journey Start / End

Actor User as U
participant App as A 
participant "Handling Service" as S
database "Azure Data Store" as D


U -> A : Launch App 
activate A
    A -> S : Cached Data Request
        activate S
    alt Data is cached
        S - -> A : Cached Data
        deactivate S
    else Data is not cached
            S -> D : Data Request
            activate S
            activate D
            D - -> S : Data
            deactivate D
            S - -> A : Data
        deactivate S
    end

    U <- - A : Stored Odometer

    alt correct state
    U -> A : Confirm 

    else incorrect state
        U -> A : Reject
        ref over U, A, S, D : Input Odometer Data

        end
deactivate A

@enduml

@startuml


Title Journey Start / End

Actor User as U
participant App as A 
participant "Handling Service" as S
database "Azure Data Store" as D


U -> A : Launch App 
activate A
    A -> S : Cached Data Request
        activate S
    alt Data is cached
        S - -> A : Cached Data
        deactivate S
    else Data is not cached
            S -> D : Data Request
            activate S
            activate D
            D - -> S : Data
            deactivate D
            S - -> A : Data
        deactivate S
    end

    U <- - A : Stored Odometer

    alt correct state
    U -> A : Confirm 

    else incorrect state
        U -> A : Reject
        ref over U, A, S, D : Input Odometer Data

        end
deactivate A

@enduml

PlantUML version 1.2022.7(Mon Aug 22 19:01:30 CEST 2022)
(GPL source distribution)
Java Runtime: OpenJDK Runtime Environment
JVM: OpenJDK 64-Bit Server VM
Default Encoding: UTF-8
Language: en
Country: US
--></g></svg>