<?xml version="1.0" encoding="UTF-8" standalone="no"?><svg xmlns="http://www.w3.org/2000/svg" xmlns:xlink="http://www.w3.org/1999/xlink" contentStyleType="text/css" height="1152px" preserveAspectRatio="none" style="width:839px;height:1152px;background:#FFFFFF;" version="1.1" viewBox="0 0 839 1152" width="839px" zoomAndPan="magnify"><defs/><g><rect fill="none" height="26.2969" id="_title" style="stroke:none;stroke-width:1.0;" width="174" x="333.75" y="10"/><text fill="#000000" font-family="sans-serif" font-size="14" font-weight="bold" lengthAdjust="spacing" textLength="164" x="338.75" y="27.9951">Input Odometer Data</text><rect fill="#FFFFFF" height="913.4609" style="stroke:#181818;stroke-width:1.0;" width="10" x="259" y="149.7266"/><rect fill="#FFFFFF" height="187.7969" style="stroke:#181818;stroke-width:1.0;" width="10" x="430" y="261.2578"/><rect fill="#FFFFFF" height="87.3984" style="stroke:#181818;stroke-width:1.0;" width="10" x="430" y="560.5859"/><rect fill="#FFFFFF" height="87.3984" style="stroke:#181818;stroke-width:1.0;" width="10" x="630" y="290.3906"/><rect fill="#FFFFFF" height="29.1328" style="stroke:#181818;stroke-width:1.0;" width="10" x="746" y="319.5234"/><rect fill="#FFFFFF" height="29.1328" style="stroke:#181818;stroke-width:1.0;" width="10" x="746" y="589.7188"/><rect fill="#FFFFFF" height="29.1328" style="stroke:#181818;stroke-width:1.0;" width="10" x="746" y="959.7891"/><rect fill="none" height="861.3281" style="stroke:#000000;stroke-width:1.5;" width="822.5" x="10" y="193.8594"/><rect fill="none" height="365.3984" style="stroke:#000000;stroke-width:1.5;" width="802.5" x="20" y="493.1875"/><line style="stroke:#181818;stroke-width:0.5;stroke-dasharray:5.0,5.0;" x1="49" x2="49" y1="118.5938" y2="1072.1875"/><line style="stroke:#181818;stroke-width:0.5;stroke-dasharray:5.0,5.0;" x1="263.5" x2="263.5" y1="118.5938" y2="1072.1875"/><line style="stroke:#181818;stroke-width:0.5;stroke-dasharray:5.0,5.0;" x1="435" x2="435" y1="118.5938" y2="1072.1875"/><line style="stroke:#181818;stroke-width:0.5;stroke-dasharray:5.0,5.0;" x1="634.5" x2="634.5" y1="118.5938" y2="1072.1875"/><line style="stroke:#181818;stroke-width:0.5;stroke-dasharray:5.0,5.0;" x1="750.5" x2="750.5" y1="118.5938" y2="1072.1875"/><text fill="#000000" font-family="sans-serif" font-size="14" lengthAdjust="spacing" textLength="32" x="30" y="115.292">User</text><ellipse cx="49" cy="50.7969" fill="#E2E2F0" rx="8" ry="8" style="stroke:#181818;stroke-width:0.5;"/><path d="M49,58.7969 L49,85.7969 M36,66.7969 L62,66.7969 M49,85.7969 L36,100.7969 M49,85.7969 L62,100.7969 " fill="none" style="stroke:#181818;stroke-width:0.5;"/><text fill="#000000" font-family="sans-serif" font-size="14" lengthAdjust="spacing" textLength="32" x="30" y="1084.1826">User</text><ellipse cx="49" cy="1095.9844" fill="#E2E2F0" rx="8" ry="8" style="stroke:#181818;stroke-width:0.5;"/><path d="M49,1103.9844 L49,1130.9844 M36,1111.9844 L62,1111.9844 M49,1130.9844 L36,1145.9844 M49,1130.9844 L62,1145.9844 " fill="none" style="stroke:#181818;stroke-width:0.5;"/><rect fill="#E2E2F0" height="30.2969" rx="2.5" ry="2.5" style="stroke:#181818;stroke-width:0.5;" width="41" x="243.5" y="87.2969"/><text fill="#000000" font-family="sans-serif" font-size="14" lengthAdjust="spacing" textLength="27" x="250.5" y="107.292">App</text><rect fill="#E2E2F0" height="30.2969" rx="2.5" ry="2.5" style="stroke:#181818;stroke-width:0.5;" width="41" x="243.5" y="1071.1875"/><text fill="#000000" font-family="sans-serif" font-size="14" lengthAdjust="spacing" textLength="27" x="250.5" y="1091.1826">App</text><rect fill="#E2E2F0" height="30.2969" rx="2.5" ry="2.5" style="stroke:#181818;stroke-width:0.5;" width="128" x="371" y="87.2969"/><text fill="#000000" font-family="sans-serif" font-size="14" lengthAdjust="spacing" textLength="114" x="378" y="107.292">Handling Service</text><rect fill="#E2E2F0" height="30.2969" rx="2.5" ry="2.5" style="stroke:#181818;stroke-width:0.5;" width="128" x="371" y="1071.1875"/><text fill="#000000" font-family="sans-serif" font-size="14" lengthAdjust="spacing" textLength="114" x="378" y="1091.1826">Handling Service</text><rect fill="#E2E2F0" height="30.2969" rx="2.5" ry="2.5" style="stroke:#181818;stroke-width:0.5;" width="89" x="590.5" y="87.2969"/><text fill="#000000" font-family="sans-serif" font-size="14" lengthAdjust="spacing" textLength="75" x="597.5" y="107.292">Azure OCR</text><rect fill="#E2E2F0" height="30.2969" rx="2.5" ry="2.5" style="stroke:#181818;stroke-width:0.5;" width="89" x="590.5" y="1071.1875"/><text fill="#000000" font-family="sans-serif" font-size="14" lengthAdjust="spacing" textLength="75" x="597.5" y="1091.1826">Azure OCR</text><text fill="#000000" font-family="sans-serif" font-size="14" lengthAdjust="spacing" textLength="117" x="689.5" y="115.292">Azure Data Store</text><path d="M733,66.2969 C733,56.2969 751,56.2969 751,56.2969 C751,56.2969 769,56.2969 769,66.2969 L769,92.2969 C769,102.2969 751,102.2969 751,102.2969 C751,102.2969 733,102.2969 733,92.2969 L733,66.2969 " fill="#E2E2F0" style="stroke:#181818;stroke-width:1.5;"/><path d="M733,66.2969 C733,76.2969 751,76.2969 751,76.2969 C751,76.2969 769,76.2969 769,66.2969 " fill="none" style="stroke:#181818;stroke-width:1.5;"/><text fill="#000000" font-family="sans-serif" font-size="14" lengthAdjust="spacing" textLength="117" x="689.5" y="1084.1826">Azure Data Store</text><path d="M733,1097.4844 C733,1087.4844 751,1087.4844 751,1087.4844 C751,1087.4844 769,1087.4844 769,1097.4844 L769,1123.4844 C769,1133.4844 751,1133.4844 751,1133.4844 C751,1133.4844 733,1133.4844 733,1123.4844 L733,1097.4844 " fill="#E2E2F0" style="stroke:#181818;stroke-width:1.5;"/><path d="M733,1097.4844 C733,1107.4844 751,1107.4844 751,1107.4844 C751,1107.4844 769,1107.4844 769,1097.4844 " fill="none" style="stroke:#181818;stroke-width:1.5;"/><rect fill="#FFFFFF" height="913.4609" style="stroke:#181818;stroke-width:1.0;" width="10" x="259" y="149.7266"/><rect fill="#FFFFFF" height="187.7969" style="stroke:#181818;stroke-width:1.0;" width="10" x="430" y="261.2578"/><rect fill="#FFFFFF" height="87.3984" style="stroke:#181818;stroke-width:1.0;" width="10" x="430" y="560.5859"/><rect fill="#FFFFFF" height="87.3984" style="stroke:#181818;stroke-width:1.0;" width="10" x="630" y="290.3906"/><rect fill="#FFFFFF" height="29.1328" style="stroke:#181818;stroke-width:1.0;" width="10" x="746" y="319.5234"/><rect fill="#FFFFFF" height="29.1328" style="stroke:#181818;stroke-width:1.0;" width="10" x="746" y="589.7188"/><rect fill="#FFFFFF" height="29.1328" style="stroke:#181818;stroke-width:1.0;" width="10" x="746" y="959.7891"/><polygon fill="#181818" points="247,145.7266,257,149.7266,247,153.7266,251,149.7266" style="stroke:#181818;stroke-width:1.0;"/><line style="stroke:#181818;stroke-width:1.0;" x1="49" x2="253" y1="149.7266" y2="149.7266"/><text fill="#000000" font-family="sans-serif" font-size="13" lengthAdjust="spacing" textLength="191" x="56" y="144.6606">New Odometer State Request</text><polygon fill="#181818" points="60,174.8594,50,178.8594,60,182.8594,56,178.8594" style="stroke:#181818;stroke-width:1.0;"/><line style="stroke:#181818;stroke-width:1.0;stroke-dasharray:2.0,2.0;" x1="54" x2="258" y1="178.8594" y2="178.8594"/><text fill="#000000" font-family="sans-serif" font-size="13" lengthAdjust="spacing" textLength="109" x="66" y="173.7935">Odometer Dialog</text><path d="M10,193.8594 L74,193.8594 L74,200.9922 L64,210.9922 L10,210.9922 L10,193.8594 " fill="#EEEEEE" style="stroke:#000000;stroke-width:1.5;"/><rect fill="none" height="861.3281" style="stroke:#000000;stroke-width:1.5;" width="822.5" x="10" y="193.8594"/><text fill="#000000" font-family="sans-serif" font-size="13" font-weight="bold" lengthAdjust="spacing" textLength="19" x="25" y="206.9263">alt</text><text fill="#000000" font-family="sans-serif" font-size="11" font-weight="bold" lengthAdjust="spacing" textLength="86" x="89" y="206.0698">[Image Input]</text><polygon fill="#181818" points="247,228.125,257,232.125,247,236.125,251,232.125" style="stroke:#181818;stroke-width:1.0;"/><line style="stroke:#181818;stroke-width:1.0;" x1="49" x2="253" y1="232.125" y2="232.125"/><text fill="#000000" font-family="sans-serif" font-size="13" lengthAdjust="spacing" textLength="40" x="56" y="227.0591">Image</text><polygon fill="#181818" points="418,257.2578,428,261.2578,418,265.2578,422,261.2578" style="stroke:#181818;stroke-width:1.0;"/><line style="stroke:#181818;stroke-width:1.0;" x1="269" x2="424" y1="261.2578" y2="261.2578"/><text fill="#000000" font-family="sans-serif" font-size="13" lengthAdjust="spacing" textLength="40" x="276" y="256.1919">Image</text><polygon fill="#181818" points="618,286.3906,628,290.3906,618,294.3906,622,290.3906" style="stroke:#181818;stroke-width:1.0;"/><line style="stroke:#181818;stroke-width:1.0;" x1="440" x2="624" y1="290.3906" y2="290.3906"/><text fill="#000000" font-family="sans-serif" font-size="13" lengthAdjust="spacing" textLength="40" x="447" y="285.3247">Image</text><polygon fill="#181818" points="734,315.5234,744,319.5234,734,323.5234,738,319.5234" style="stroke:#181818;stroke-width:1.0;"/><line style="stroke:#181818;stroke-width:1.0;" x1="440" x2="740" y1="319.5234" y2="319.5234"/><text fill="#000000" font-family="sans-serif" font-size="13" lengthAdjust="spacing" textLength="40" x="447" y="314.4575">Image</text><polygon fill="#181818" points="451,344.6563,441,348.6563,451,352.6563,447,348.6563" style="stroke:#181818;stroke-width:1.0;"/><line style="stroke:#181818;stroke-width:1.0;stroke-dasharray:2.0,2.0;" x1="445" x2="750" y1="348.6563" y2="348.6563"/><text fill="#000000" font-family="sans-serif" font-size="13" lengthAdjust="spacing" textLength="17" x="457" y="343.5903">Ok</text><polygon fill="#181818" points="451,373.7891,441,377.7891,451,381.7891,447,377.7891" style="stroke:#181818;stroke-width:1.0;"/><line style="stroke:#181818;stroke-width:1.0;stroke-dasharray:2.0,2.0;" x1="445" x2="634" y1="377.7891" y2="377.7891"/><text fill="#000000" font-family="sans-serif" font-size="13" lengthAdjust="spacing" textLength="166" x="457" y="372.7231">Optically Recognized Data</text><line style="stroke:#181818;stroke-width:1.0;" x1="440" x2="482" y1="406.9219" y2="406.9219"/><line style="stroke:#181818;stroke-width:1.0;" x1="482" x2="482" y1="406.9219" y2="419.9219"/><line style="stroke:#181818;stroke-width:1.0;" x1="441" x2="482" y1="419.9219" y2="419.9219"/><polygon fill="#181818" points="451,415.9219,441,419.9219,451,423.9219,447,419.9219" style="stroke:#181818;stroke-width:1.0;"/><text fill="#000000" font-family="sans-serif" font-size="13" lengthAdjust="spacing" textLength="106" x="447" y="401.856">Cache OCR Data</text><polygon fill="#181818" points="280,445.0547,270,449.0547,280,453.0547,276,449.0547" style="stroke:#181818;stroke-width:1.0;"/><line style="stroke:#181818;stroke-width:1.0;stroke-dasharray:2.0,2.0;" x1="274" x2="434" y1="449.0547" y2="449.0547"/><text fill="#000000" font-family="sans-serif" font-size="13" lengthAdjust="spacing" textLength="101" x="286" y="443.9888">Processed Data</text><polygon fill="#181818" points="60,474.1875,50,478.1875,60,482.1875,56,478.1875" style="stroke:#181818;stroke-width:1.0;"/><line style="stroke:#181818;stroke-width:1.0;stroke-dasharray:2.0,2.0;" x1="54" x2="258" y1="478.1875" y2="478.1875"/><text fill="#000000" font-family="sans-serif" font-size="13" lengthAdjust="spacing" textLength="182" x="66" y="473.1216">Confirm Suggestion Request</text><path d="M20,493.1875 L84,493.1875 L84,500.3203 L74,510.3203 L20,510.3203 L20,493.1875 " fill="#EEEEEE" style="stroke:#000000;stroke-width:1.5;"/><rect fill="none" height="365.3984" style="stroke:#000000;stroke-width:1.5;" width="802.5" x="20" y="493.1875"/><text fill="#000000" font-family="sans-serif" font-size="13" font-weight="bold" lengthAdjust="spacing" textLength="19" x="35" y="506.2544">alt</text><text fill="#000000" font-family="sans-serif" font-size="11" font-weight="bold" lengthAdjust="spacing" textLength="110" x="99" y="505.3979">[Data Confirmed]</text><polygon fill="#181818" points="247,527.4531,257,531.4531,247,535.4531,251,531.4531" style="stroke:#181818;stroke-width:1.0;"/><line style="stroke:#181818;stroke-width:1.0;" x1="49" x2="253" y1="531.4531" y2="531.4531"/><text fill="#000000" font-family="sans-serif" font-size="13" lengthAdjust="spacing" textLength="44" x="56" y="526.3872">Accept</text><polygon fill="#181818" points="418,556.5859,428,560.5859,418,564.5859,422,560.5859" style="stroke:#181818;stroke-width:1.0;"/><line style="stroke:#181818;stroke-width:1.0;" x1="269" x2="424" y1="560.5859" y2="560.5859"/><text fill="#000000" font-family="sans-serif" font-size="13" lengthAdjust="spacing" textLength="50" x="276" y="555.52">Confirm</text><polygon fill="#181818" points="734,585.7188,744,589.7188,734,593.7188,738,589.7188" style="stroke:#181818;stroke-width:1.0;"/><line style="stroke:#181818;stroke-width:1.0;" x1="440" x2="740" y1="589.7188" y2="589.7188"/><text fill="#000000" font-family="sans-serif" font-size="13" lengthAdjust="spacing" textLength="31" x="447" y="584.6528">Data</text><polygon fill="#181818" points="451,614.8516,441,618.8516,451,622.8516,447,618.8516" style="stroke:#181818;stroke-width:1.0;"/><line style="stroke:#181818;stroke-width:1.0;stroke-dasharray:2.0,2.0;" x1="445" x2="750" y1="618.8516" y2="618.8516"/><text fill="#000000" font-family="sans-serif" font-size="13" lengthAdjust="spacing" textLength="17" x="457" y="613.7856">Ok</text><polygon fill="#181818" points="280,643.9844,270,647.9844,280,651.9844,276,647.9844" style="stroke:#181818;stroke-width:1.0;"/><line style="stroke:#181818;stroke-width:1.0;stroke-dasharray:2.0,2.0;" x1="274" x2="434" y1="647.9844" y2="647.9844"/><text fill="#000000" font-family="sans-serif" font-size="13" lengthAdjust="spacing" textLength="17" x="286" y="642.9185">Ok</text><polygon fill="#181818" points="60,673.1172,50,677.1172,60,681.1172,56,677.1172" style="stroke:#181818;stroke-width:1.0;"/><line style="stroke:#181818;stroke-width:1.0;stroke-dasharray:2.0,2.0;" x1="54" x2="258" y1="677.1172" y2="677.1172"/><text fill="#000000" font-family="sans-serif" font-size="13" lengthAdjust="spacing" textLength="103" x="66" y="672.0513">Status Message</text><line style="stroke:#000000;stroke-width:1.0;stroke-dasharray:2.0,2.0;" x1="20" x2="822.5" y1="686.1172" y2="686.1172"/><text fill="#000000" font-family="sans-serif" font-size="11" font-weight="bold" lengthAdjust="spacing" textLength="100" x="25" y="696.3276">[Data Rejected]</text><polygon fill="#181818" points="247,717.0547,257,721.0547,247,725.0547,251,721.0547" style="stroke:#181818;stroke-width:1.0;"/><line style="stroke:#181818;stroke-width:1.0;" x1="49" x2="253" y1="721.0547" y2="721.0547"/><text fill="#000000" font-family="sans-serif" font-size="13" lengthAdjust="spacing" textLength="39" x="56" y="715.9888">Reject</text><polygon fill="#181818" points="423,746.1875,433,750.1875,423,754.1875,427,750.1875" style="stroke:#181818;stroke-width:1.0;"/><line style="stroke:#181818;stroke-width:1.0;" x1="269" x2="429" y1="750.1875" y2="750.1875"/><text fill="#000000" font-family="sans-serif" font-size="13" lengthAdjust="spacing" textLength="142" x="276" y="745.1216">Delete Cache Request</text><line style="stroke:#181818;stroke-width:1.0;" x1="435" x2="477" y1="779.3203" y2="779.3203"/><line style="stroke:#181818;stroke-width:1.0;" x1="477" x2="477" y1="779.3203" y2="792.3203"/><line style="stroke:#181818;stroke-width:1.0;" x1="436" x2="477" y1="792.3203" y2="792.3203"/><polygon fill="#181818" points="446,788.3203,436,792.3203,446,796.3203,442,792.3203" style="stroke:#181818;stroke-width:1.0;"/><text fill="#000000" font-family="sans-serif" font-size="13" lengthAdjust="spacing" textLength="86" x="442" y="774.2544">Delete Cache</text><polygon fill="#181818" points="280,817.4531,270,821.4531,280,825.4531,276,821.4531" style="stroke:#181818;stroke-width:1.0;"/><line style="stroke:#181818;stroke-width:1.0;stroke-dasharray:2.0,2.0;" x1="274" x2="434" y1="821.4531" y2="821.4531"/><text fill="#000000" font-family="sans-serif" font-size="13" lengthAdjust="spacing" textLength="17" x="286" y="816.3872">Ok</text><polygon fill="#181818" points="60,846.5859,50,850.5859,60,854.5859,56,850.5859" style="stroke:#181818;stroke-width:1.0;"/><line style="stroke:#181818;stroke-width:1.0;stroke-dasharray:2.0,2.0;" x1="54" x2="258" y1="850.5859" y2="850.5859"/><text fill="#000000" font-family="sans-serif" font-size="13" lengthAdjust="spacing" textLength="103" x="66" y="845.52">Status Message</text><line style="stroke:#000000;stroke-width:1.0;stroke-dasharray:2.0,2.0;" x1="10" x2="832.5" y1="866.5859" y2="866.5859"/><text fill="#000000" font-family="sans-serif" font-size="11" font-weight="bold" lengthAdjust="spacing" textLength="94" x="15" y="876.7964">[Manual Input]</text><polygon fill="#181818" points="247,897.5234,257,901.5234,247,905.5234,251,901.5234" style="stroke:#181818;stroke-width:1.0;"/><line style="stroke:#181818;stroke-width:1.0;" x1="49" x2="253" y1="901.5234" y2="901.5234"/><text fill="#000000" font-family="sans-serif" font-size="13" lengthAdjust="spacing" textLength="82" x="56" y="896.4575">Manual Input</text><polygon fill="#181818" points="423,926.6563,433,930.6563,423,934.6563,427,930.6563" style="stroke:#181818;stroke-width:1.0;"/><line style="stroke:#181818;stroke-width:1.0;" x1="269" x2="429" y1="930.6563" y2="930.6563"/><text fill="#000000" font-family="sans-serif" font-size="13" lengthAdjust="spacing" textLength="31" x="276" y="925.5903">Data</text><polygon fill="#181818" points="734,955.7891,744,959.7891,734,963.7891,738,959.7891" style="stroke:#181818;stroke-width:1.0;"/><line style="stroke:#181818;stroke-width:1.0;" x1="435" x2="740" y1="959.7891" y2="959.7891"/><text fill="#000000" font-family="sans-serif" font-size="13" lengthAdjust="spacing" textLength="31" x="442" y="954.7231">Data</text><polygon fill="#181818" points="446,984.9219,436,988.9219,446,992.9219,442,988.9219" style="stroke:#181818;stroke-width:1.0;"/><line style="stroke:#181818;stroke-width:1.0;stroke-dasharray:2.0,2.0;" x1="440" x2="750" y1="988.9219" y2="988.9219"/><text fill="#000000" font-family="sans-serif" font-size="13" lengthAdjust="spacing" textLength="17" x="452" y="983.856">Ok</text><polygon fill="#181818" points="280,1014.0547,270,1018.0547,280,1022.0547,276,1018.0547" style="stroke:#181818;stroke-width:1.0;"/><line style="stroke:#181818;stroke-width:1.0;stroke-dasharray:2.0,2.0;" x1="274" x2="434" y1="1018.0547" y2="1018.0547"/><text fill="#000000" font-family="sans-serif" font-size="13" lengthAdjust="spacing" textLength="17" x="286" y="1012.9888">Ok</text><polygon fill="#181818" points="60,1043.1875,50,1047.1875,60,1051.1875,56,1047.1875" style="stroke:#181818;stroke-width:1.0;"/><line style="stroke:#181818;stroke-width:1.0;stroke-dasharray:2.0,2.0;" x1="54" x2="258" y1="1047.1875" y2="1047.1875"/><text fill="#000000" font-family="sans-serif" font-size="13" lengthAdjust="spacing" textLength="103" x="66" y="1042.1216">Status Message</text><!--MD5=[2003e9851b0e89c5276ad393ce1b4ced]
@startuml

' autonumber 

Title Input Odometer Data

Actor User as U
participant App as A 
participant "Handling Service" as S
participant "Azure OCR" as OCR

database "Azure Data Store" as D


U -> A : New Odometer State Request 
activate A
U <- - A : Odometer Dialog

' User chooses to photograph the odometer
alt Image Input
    U -> A : Image 
    A -> S : Image

    activate S
        S -> OCR : Image 
        activate OCR

        S -> D : Image 
        activate D
        S <- - D : Ok 
        deactivate D

        S <- - OCR : Optically Recognized Data
        deactivate OCR

        S -> S : Cache OCR Data
        A <- - S : Processed Data
    deactivate S
    

    U <- - A : Confirm Suggestion Request
    alt Data Confirmed
    U -> A : Accept

    
    A -> S : Confirm
    activate S

        S -> D : Data
        activate D
            S <- - D : Ok
        deactivate D
        
        A <- - S : Ok
    deactivate S

    U <- - A : Status Message


    else Data Rejected
    U -> A : Reject
    A -> S : Delete Cache Request
    S -> S : Delete Cache
    A <- - S :  Ok

    U <- - A : Status Message

    end
    

' User chooses to input the odometer manually
else Manual Input
    U -> A : Manual Input 
    A -> S : Data 
    S -> D : Data
    activate D
    S <- - D : Ok
    deactivate D
    A <- - S: Ok

    U <- - A : Status Message

end

@enduml

@startuml


Title Input Odometer Data

Actor User as U
participant App as A 
participant "Handling Service" as S
participant "Azure OCR" as OCR

database "Azure Data Store" as D


U -> A : New Odometer State Request 
activate A
U <- - A : Odometer Dialog

alt Image Input
    U -> A : Image 
    A -> S : Image

    activate S
        S -> OCR : Image 
        activate OCR

        S -> D : Image 
        activate D
        S <- - D : Ok 
        deactivate D

        S <- - OCR : Optically Recognized Data
        deactivate OCR

        S -> S : Cache OCR Data
        A <- - S : Processed Data
    deactivate S
    

    U <- - A : Confirm Suggestion Request
    alt Data Confirmed
    U -> A : Accept

    
    A -> S : Confirm
    activate S

        S -> D : Data
        activate D
            S <- - D : Ok
        deactivate D
        
        A <- - S : Ok
    deactivate S

    U <- - A : Status Message


    else Data Rejected
    U -> A : Reject
    A -> S : Delete Cache Request
    S -> S : Delete Cache
    A <- - S :  Ok

    U <- - A : Status Message

    end
    

else Manual Input
    U -> A : Manual Input 
    A -> S : Data 
    S -> D : Data
    activate D
    S <- - D : Ok
    deactivate D
    A <- - S: Ok

    U <- - A : Status Message

end

@enduml

PlantUML version 1.2022.7(Mon Aug 22 19:01:30 CEST 2022)
(GPL source distribution)
Java Runtime: OpenJDK Runtime Environment
JVM: OpenJDK 64-Bit Server VM
Default Encoding: UTF-8
Language: en
Country: US
--></g></svg>