<?xml version="1.0" encoding="UTF-8" standalone="no"?><svg xmlns="http://www.w3.org/2000/svg" xmlns:xlink="http://www.w3.org/1999/xlink" contentStyleType="text/css" height="984px" preserveAspectRatio="none" style="width:588px;height:984px;background:#FFFFFF;" version="1.1" viewBox="0 0 588 984" width="588px" zoomAndPan="magnify"><defs/><g><rect fill="none" height="26.2969" id="_title" style="stroke:none;stroke-width:1.0;" width="173" x="200.8827" y="5"/><text fill="#000000" font-family="sans-serif" font-size="14" font-weight="bold" lengthAdjust="spacing" textLength="163" x="205.8827" y="22.9951">Deployment Diagram</text><!--MD5=[7afea78ea3e2dfbc9b2261ae2e330c51]
cluster phone--><g id="cluster_phone"><polygon fill="none" points="255.9465,162.2969,265.9465,152.2969,486.9465,152.2969,486.9465,374.2969,476.9465,384.2969,255.9465,384.2969,255.9465,162.2969" style="stroke:#181818;stroke-width:1.0;"/><line style="stroke:#181818;stroke-width:1.0;" x1="476.9465" x2="486.9465" y1="162.2969" y2="152.2969"/><line style="stroke:#181818;stroke-width:1.0;" x1="255.9465" x2="476.9465" y1="162.2969" y2="162.2969"/><line style="stroke:#181818;stroke-width:1.0;" x1="476.9465" x2="476.9465" y1="162.2969" y2="384.2969"/><text fill="#000000" font-family="sans-serif" font-size="14" font-style="italic" lengthAdjust="spacing" textLength="64" x="335.4465" y="178.292">«device»</text><text fill="#000000" font-family="sans-serif" font-size="14" font-weight="bold" lengthAdjust="spacing" textLength="96" x="319.4465" y="194.5889">Smartphone</text></g><!--MD5=[08e37497c99580f062c60b0fe3648110]
cluster expo--><g id="cluster_expo"><polygon fill="none" points="295.9465,234.2969,305.9465,224.2969,454.9465,224.2969,454.9465,342.2969,444.9465,352.2969,295.9465,352.2969,295.9465,234.2969" style="stroke:#181818;stroke-width:1.0;"/><line style="stroke:#181818;stroke-width:1.0;" x1="444.9465" x2="454.9465" y1="234.2969" y2="224.2969"/><line style="stroke:#181818;stroke-width:1.0;" x1="295.9465" x2="444.9465" y1="234.2969" y2="234.2969"/><line style="stroke:#181818;stroke-width:1.0;" x1="444.9465" x2="444.9465" y1="234.2969" y2="352.2969"/><text fill="#000000" font-family="sans-serif" font-size="14" font-style="italic" lengthAdjust="spacing" textLength="83" x="329.9465" y="250.292">«container»</text><text fill="#000000" font-family="sans-serif" font-size="14" font-weight="bold" lengthAdjust="spacing" textLength="65" x="338.9465" y="266.5889">Expo Go</text></g><!--MD5=[1e96f7986089819d0edbd1acd281da86]
cluster AppService--><g id="cluster_AppService"><path d="M271.5826,459.0582 C278.5346,448.4158 287.0001,448.1489 293.6858,459.328 C296.581,450.2118 305.6507,447.923 312.044,455.4754 C319.9563,447.4184 326.7657,448.3608 332.6562,457.8504 C336.0805,446.1358 346.0951,444.854 353.8575,453.2851 C359.9444,443.4293 367.5953,444.2666 373.7452,453.2184 C380.5383,442.9095 388.1478,442.2704 394.8055,453.3518 C398.8277,444.3822 405.8861,443.2551 411.794,451.4897 C420.4762,442.7146 426.9538,444.25 433.5804,453.918 C440.0628,444.105 446.5145,443.2345 453.7978,453.0951 C460.496,445.1253 469.3526,443.1102 474.3621,454.8564 C480.7472,445.881 486.6912,446.1881 492.0204,455.8566 C499.3258,446.0171 506.0301,444.1096 513.5299,455.6612 C520.3364,447.9386 529.5403,449.6285 532.6281,459.6612 C543.3224,448.43 552.4989,451.4179 558.9465,464.2969 C559.291,463.922 559.7253,464.0244 559.9268,464.4681 C572.2336,469.1529 571.495,479.3056 562.272,486.3027 C570.7506,491.5907 570.4595,501.0529 561.8701,505.9925 C575.408,511.1264 576.8399,518.9414 565.9758,528.5223 C574.441,533.8203 573.7171,542.6084 565.2609,547.2608 C576.6777,552.2272 577.4567,559.0822 568.9507,567.6535 C578.8697,573.1107 579.1338,580.2814 570.5701,587.2648 C581.7654,593.0476 580.8667,604.1878 570.8292,610.2103 C579.0844,617.2511 579.2882,623.2537 568.9255,628.3394 C578.2098,634.567 578.5377,643.7478 568.0359,649.1286 C578.2653,655.455 578.5825,664.9323 567.1776,670.3851 C575.8728,677.8487 575.4452,684.0122 566.0676,690.4773 C576.7934,698.9638 575.9563,706.4454 563.6079,712.3353 C573.7054,718.5484 572.1603,724.8736 563.9058,731.3738 C570.8907,743.147 568.0768,755.6155 551.9465,756.2969 C553.3901,755.5557 554.4682,756.4634 554.2988,757.9786 C550.7531,767.1779 542.187,769.9866 535.2557,761.6565 C527.7879,770.6902 519.0684,772.4265 512.8954,760.289 C508.8508,770.2994 502.5168,771.5079 494.8146,764.0816 C488.2851,774.0949 480.4989,772.0576 474.4531,763.5499 C467.934,775.7214 459.7767,775.1683 451.7751,765.0588 C447.561,775.6114 437.5126,775.2441 431.7513,766.6794 C426.9566,773.9326 421.4346,774.4605 415.2895,768.3418 C410.0613,779.0187 400.6823,778.1242 394.4893,769.3747 C387.3025,779.2998 377.564,778.638 372.9969,766.7889 C365.6868,775.7297 357.1251,774.714 352.7025,763.8326 C347.5519,774.0115 339.5898,774.487 333.5371,764.6984 C324.1533,774.4342 317.2775,772.8072 311.7097,760.8575 C304.2297,767.7015 298.0056,769.0315 293.2078,758.0703 C280.3107,767.8744 268.4119,767.6147 263.9465,749.2969 C264.769,748.3764 265.5604,748.3389 266.1564,749.5335 C258.6702,745.6359 256.5269,738.0277 264.7835,732.8357 C254.9197,725.6211 256.4076,717.7626 265.4525,711.1308 C256.2291,705.6467 255.9332,696.9951 264.2642,690.4999 C254.3154,685.0546 254.1678,678.0209 261.3912,670.1512 C251.4856,663.6828 252.0679,656.4172 260.3374,649.0415 C249.3447,644.7925 248.2238,637.9149 257.3626,630.4454 C247.715,625.4253 246.6566,615.2319 255.6709,608.7563 C246.3695,600.0411 249.2077,591.381 260.1734,586.8271 C251.0111,581.1486 249.3647,572.5505 259.3296,566.0937 C250.3313,560.0213 250.2567,552.012 259.8114,546.3933 C253.6013,539.1437 252.4623,533.1596 262.6223,528.4786 C253.8318,520.0393 254.5712,511.7748 265.4421,505.7778 C256.1998,498.5877 257.5099,492.2745 266.4553,486.0171 C253.0063,474.4127 257.0164,464.6198 270.9465,457.2969 C272.0408,457.5901 272.2111,458.1428 271.5826,459.0582 " fill="none" style="stroke:#181818;stroke-width:1.0;"/><text fill="#000000" font-family="sans-serif" font-size="14" font-style="italic" lengthAdjust="spacing" textLength="109" x="356.9465" y="475.292">«cloud service»</text><text fill="#000000" font-family="sans-serif" font-size="14" font-weight="bold" lengthAdjust="spacing" textLength="147" x="337.9465" y="491.5889">Azure App Service</text></g><!--MD5=[42591781c74864aa6bd8b9830e23a81c]
cluster Docker--><g id="cluster_Docker"><polygon fill="none" points="295.9465,526.2969,305.9465,516.2969,534.9465,516.2969,534.9465,722.2969,524.9465,732.2969,295.9465,732.2969,295.9465,526.2969" style="stroke:#181818;stroke-width:1.0;"/><line style="stroke:#181818;stroke-width:1.0;" x1="524.9465" x2="534.9465" y1="526.2969" y2="516.2969"/><line style="stroke:#181818;stroke-width:1.0;" x1="295.9465" x2="524.9465" y1="526.2969" y2="526.2969"/><line style="stroke:#181818;stroke-width:1.0;" x1="524.9465" x2="524.9465" y1="526.2969" y2="732.2969"/><text fill="#000000" font-family="sans-serif" font-size="14" font-style="italic" lengthAdjust="spacing" textLength="83" x="369.9465" y="542.292">«container»</text><text fill="#000000" font-family="sans-serif" font-size="14" font-weight="bold" lengthAdjust="spacing" textLength="56" x="383.4465" y="558.5889">Docker</text></g><!--MD5=[4ef80439e1ef409f8f3a0ec422262701]
cluster server--><g id="cluster_server"><polygon fill="none" points="319.9465,590.2969,329.9465,580.2969,510.9465,580.2969,510.9465,698.2969,500.9465,708.2969,319.9465,708.2969,319.9465,590.2969" style="stroke:#181818;stroke-width:1.0;"/><line style="stroke:#181818;stroke-width:1.0;" x1="500.9465" x2="510.9465" y1="590.2969" y2="580.2969"/><line style="stroke:#181818;stroke-width:1.0;" x1="319.9465" x2="500.9465" y1="590.2969" y2="590.2969"/><line style="stroke:#181818;stroke-width:1.0;" x1="500.9465" x2="500.9465" y1="590.2969" y2="708.2969"/><text fill="#000000" font-family="sans-serif" font-size="14" font-style="italic" lengthAdjust="spacing" textLength="61" x="380.9465" y="606.292">«server»</text><text fill="#000000" font-family="sans-serif" font-size="14" font-weight="bold" lengthAdjust="spacing" textLength="115" x="353.9465" y="622.5889">Node: Express</text></g><!--MD5=[9732a7d23dac2064210f5b66b336c5a0]
cluster cosmosdb--><g id="cluster_cosmosdb"><path d="M388.3896,838.3566 C390.8343,831.6988 396.8958,831.9341 400.7725,836.8206 C404.0657,831.0289 407.6119,831.5879 411.6062,836.0821 C414.4505,830.4986 419.3294,829.9047 423.1913,834.9757 C426.6097,829.1271 432.5372,828.9477 435.3979,835.5236 C438.4885,830.5961 442.8714,830.1718 446.5052,834.8987 C449.9863,828.4566 454.4189,828.6073 458.6339,834.1564 C462.6909,829.5615 466.5912,828.9985 469.5227,835.283 C472.6696,829.648 478.267,828.9227 481.4728,835.2241 C484.8548,830.4012 489.7948,830.2438 492.2781,836.1307 C495.3672,830.8754 501.4765,828.8956 505.0049,835.6659 C510.0994,829.5409 514.8515,831.9536 517.518,838.1347 C525.0714,833.4199 531.7446,834.744 533.9465,844.2969 C534.7476,844.2822 535.1082,844.7894 534.6947,845.5186 C539.8199,848.1617 540.5472,852.2843 536.195,856.2521 C542.4513,859.7793 541.9813,863.5974 536.8355,867.7592 C542.8907,871.6694 542.6887,876.245 537.6774,880.866 C543.752,883.0045 543.7687,887.905 539.9478,892.052 C546.8308,894.1299 545.9676,900.0564 541.683,903.7858 C544.9177,907.9778 544.1863,912.2854 538.714,913.9287 C544.2455,917.8283 544.344,922.857 538.1487,926.2171 C542.7865,930.1927 541.4485,933.7705 536.6661,936.3706 C542.4544,940.7766 542.8149,944.9909 536.4494,949.1914 C541.8279,958.5229 537.1126,965.6012 526.9465,966.2969 C527.8745,966.4211 528.1517,967.1915 527.6903,967.9434 C524.6425,972.7039 519.6641,974.1717 516.3115,968.2687 C512.7345,973.9592 509.5768,973.9096 505.8771,968.3827 C503.0365,973.9711 497.5887,975.5881 493.5444,969.6731 C490.2424,975.0518 484.6855,974.5169 482.0398,968.9813 C479.4412,975.5972 473.8128,976.4202 469.4063,970.8565 C466.3348,975.7289 463.0626,975.6266 459.5327,971.3513 C455.9557,976.7305 450.9304,977.5895 447.5577,971.1445 C443.7804,977.2186 438.6154,976.5065 435.7704,970.2531 C431.523,974.3371 426.8231,974.0297 424.6449,967.9812 C421.0115,975.4171 415.2609,975.1282 411.1214,968.4667 C407.9993,973.1823 404.2927,973.7984 400.7619,968.9075 C391.4175,974.3962 382.0552,970.7887 380.9465,959.2969 C381.2219,959.3837 381.2375,959.6197 381.0586,959.8065 C375.943,956.2925 377.0308,953.2022 381.157,949.7789 C375.6243,946.4705 375.4507,942.2033 380.3508,938.1704 C374.6996,935.5913 373.806,929.9876 379.3904,926.4851 C374.4444,922.6344 373.089,917.048 380.1751,913.9506 C374.6839,911.6739 373.5707,907.2083 378.4577,903.2638 C373.1668,899.5734 373.3629,895.1032 379.3176,892.2944 C373.1851,887.3491 373.9992,883.2975 380.6725,879.7336 C375.7031,877.058 375.7184,872.5265 379.8088,869.114 C375.1374,864.0257 376.1034,859.5964 382.3985,856.8177 C374.7215,848.2321 376.9652,840.5797 387.9465,837.2969 C388.5565,837.4159 388.6964,837.8543 388.3896,838.3566 " fill="none" style="stroke:#181818;stroke-width:1.0;"/><text fill="#000000" font-family="sans-serif" font-size="14" font-style="italic" lengthAdjust="spacing" textLength="109" x="402.9465" y="855.292">«cloud service»</text><text fill="#000000" font-family="sans-serif" font-size="14" font-weight="bold" lengthAdjust="spacing" textLength="136" x="389.4465" y="871.5889">Azure CosmosDB</text></g><!--MD5=[4541fb81c80c07473fe4b07432ef0971]
entity app--><g id="elem_app"><rect fill="#F1F1F1" height="55.5938" rx="2.5" ry="2.5" style="stroke:#181818;stroke-width:0.5;" width="121" x="314.4465" y="280.2969"/><polygon fill="#F1F1F1" points="418.4465,285.2969,418.4465,299.2969,430.4465,299.2969,430.4465,291.2969,424.4465,285.2969,418.4465,285.2969" style="stroke:#181818;stroke-width:0.5;"/><line style="stroke:#181818;stroke-width:0.5;" x1="424.4465" x2="424.4465" y1="285.2969" y2="291.2969"/><line style="stroke:#181818;stroke-width:0.5;" x1="430.4465" x2="424.4465" y1="291.2969" y2="291.2969"/><text fill="#000000" font-family="sans-serif" font-size="14" font-style="italic" lengthAdjust="spacing" textLength="64" x="337.9465" y="306.292">«artifact»</text><text fill="#000000" font-family="sans-serif" font-size="14" lengthAdjust="spacing" textLength="91" x="324.4465" y="322.5889">Logbook App</text></g><!--MD5=[38bfa9dc6018363cafe15f923a4b8db9]
entity service--><g id="elem_service"><rect fill="#F1F1F1" height="55.5938" rx="2.5" ry="2.5" style="stroke:#181818;stroke-width:0.5;" width="148" x="340.9465" y="636.2969"/><polygon fill="#F1F1F1" points="471.9465,641.2969,471.9465,655.2969,483.9465,655.2969,483.9465,647.2969,477.9465,641.2969,471.9465,641.2969" style="stroke:#181818;stroke-width:0.5;"/><line style="stroke:#181818;stroke-width:0.5;" x1="477.9465" x2="477.9465" y1="641.2969" y2="647.2969"/><line style="stroke:#181818;stroke-width:0.5;" x1="483.9465" x2="477.9465" y1="647.2969" y2="647.2969"/><text fill="#000000" font-family="sans-serif" font-size="14" font-style="italic" lengthAdjust="spacing" textLength="64" x="377.9465" y="662.292">«artifact»</text><text fill="#000000" font-family="sans-serif" font-size="14" lengthAdjust="spacing" textLength="114" x="354.9465" y="678.5889">Handling Service</text></g><!--MD5=[f50ff5e4cd64f259303fc83dba1819fc]
entity database--><g id="elem_database"><path d="M416.4465,898.2969 C416.4465,888.2969 466.9465,888.2969 466.9465,888.2969 C466.9465,888.2969 517.4465,888.2969 517.4465,898.2969 L517.4465,939.8906 C517.4465,949.8906 466.9465,949.8906 466.9465,949.8906 C466.9465,949.8906 416.4465,949.8906 416.4465,939.8906 L416.4465,898.2969 " fill="#F1F1F1" style="stroke:#181818;stroke-width:0.5;"/><path d="M416.4465,898.2969 C416.4465,908.2969 466.9465,908.2969 466.9465,908.2969 C466.9465,908.2969 517.4465,908.2969 517.4465,898.2969 " fill="none" style="stroke:#181818;stroke-width:0.5;"/><text fill="#000000" font-family="sans-serif" font-size="14" font-style="italic" lengthAdjust="spacing" textLength="81" x="426.4465" y="925.292">«database»</text><text fill="#000000" font-family="sans-serif" font-size="14" lengthAdjust="spacing" textLength="69" x="432.4465" y="941.5889">MongoDB</text></g><!--MD5=[923d49e64e6eb8d65c71cdf5e1673809]
entity OCR--><g id="elem_OCR"><path d="M17.4253,896.9201 C21.6676,890.6296 26.0316,890.3466 30.7075,896.4556 C34.0457,890.8759 38.7866,891.4012 41.5238,897.0353 C44.6433,891.2613 50.4868,890.47 54.3194,896.2452 C58.4379,890.0178 62.3291,890.1326 66.0616,896.6022 C69.5977,888.7849 74.5306,887.9998 79.9686,894.7917 C84.2942,889.6616 87.6714,891.3238 90.5097,896.3373 C93.9057,891.289 99.8134,890.7589 103.0743,896.4948 C106.7537,890.4171 113.0903,890.1233 116.0343,897.2184 C119.4693,891.6202 125.6639,891.4002 129.0279,897.2986 C132.5316,892.2205 135.6876,892.3782 139.4502,897.0211 C146.996,898.8069 149.3773,902.3529 144.9641,909.446 C151.1823,909.9976 153.6246,913.7234 150.0487,919.319 C154.3551,924.7082 151.6049,930.0283 145.2306,931.0192 C149.969,936.2252 148.0488,941.7559 141.4078,943.4672 C136.9323,950.1837 131.5399,949.2298 127.186,943.3303 C125.4647,949.336 121.1141,950.1177 117.0317,945.611 C113.0166,951.6236 108.2074,951.5798 104.2011,945.6016 C100.2626,951.845 95.5845,952.5235 90.9896,946.2971 C88.0543,952.1543 84.0165,952.3443 79.9932,947.4052 C75.772,953.5977 71.3287,953.1493 67.3192,947.1845 C63.2113,953.5159 56.5532,952.4143 53.3968,946.1342 C49.5468,951.1329 45.0759,950.0836 43.0243,944.3896 C38.7711,950.6804 34.8867,949.6673 30.5562,944.4736 C26.9597,949.936 21.1471,950.5566 17.5526,944.4713 C9.6451,942.3648 8.5761,936.9104 13.0909,930.7613 C6.9771,929.1257 6,923.5925 10.1268,919.3068 C7.0336,914.1344 8.8831,909.4541 15.1799,908.796 C10.7847,904.1299 11.6805,899.6689 17.4253,896.9201 " fill="#F1F1F1" style="stroke:#181818;stroke-width:0.5;"/><text fill="#000000" font-family="sans-serif" font-size="14" font-style="italic" lengthAdjust="spacing" textLength="109" x="23.4465" y="915.792">«cloud service»</text><text fill="#000000" font-family="sans-serif" font-size="14" lengthAdjust="spacing" textLength="75" x="40.4465" y="932.0889">Azure OCR</text></g><!--MD5=[a5a6ae0ba01c8a4589ab26bd33e87aad]
entity storage--><g id="elem_storage"><path d="M190.6899,896.2403 C194.4222,890.012 200.3284,890.1039 203.5818,896.721 C206.9269,891.7049 211.7316,891.8646 215.1763,896.6028 C219.9673,890.6043 224.5212,889.1877 229.1252,896.7945 C231.5648,891.2712 236.4966,891.2135 239.7884,895.9047 C242.2493,889.7878 248.3168,889.1523 252.1345,894.4352 C255.6421,889.7113 261.6083,889.7439 263.9612,895.7123 C267.9957,889.1867 273.2663,890.2689 276.7169,896.3053 C280.4766,889.4907 284.5087,889.2464 288.9054,895.7212 C292.7708,890.1886 298.167,890.3501 301.8728,895.9079 C306.5398,890.6425 310.1565,891.27 313.4145,897.3422 C316.965,890.374 321.0822,890.3489 325.8133,896.2004 C329.6883,889.32 335.9178,890.6275 339.3113,896.7019 C345.4356,899.6658 346.0993,904.2739 341.86,909.3295 C348.0851,910.8299 349.6251,915.7643 345.2219,920.4716 C350.3554,925.7406 350.0074,930.2515 342.4854,932.6849 C346.7662,937.4592 344.969,941.9923 338.9025,943.2614 C334.852,948.3638 331.1307,950.1591 326.619,943.7537 C323.419,950.5783 317.1655,950.3331 313.4411,944.2908 C310.0141,950.0844 305.2118,949.7386 302.2172,943.8745 C299.34,951.1052 293.9385,950.8211 289.3126,945.7018 C284.5538,951.4093 280.3826,951.1282 276.7765,944.5277 C273.4986,950.4601 269.3678,952.3099 264.2465,946.4938 C260.8597,952.1761 254.9112,952.5328 252.143,945.8865 C248.6984,951.4562 243.7323,950.6443 241.2756,944.9347 C237.3364,950.6054 231.8652,950.4032 228.1278,944.7015 C224.2603,950.3598 218.7084,950.1211 215.6606,943.8452 C211.7295,949.6803 206.9929,948.0366 203.9259,942.9193 C201.0164,949.3797 196.2046,950.0465 191.717,944.5276 C184.6411,941.2761 185.3906,937.0769 189.9364,932.153 C183.8191,928.8324 184.8499,924.2104 190.022,920.9763 C184.5019,917.008 184.6405,912.121 191.0365,909.1772 C184.4508,905.6898 184.0011,900.0834 190.6899,896.2403 " fill="#F1F1F1" style="stroke:#181818;stroke-width:0.5;"/><text fill="#000000" font-family="sans-serif" font-size="14" font-style="italic" lengthAdjust="spacing" textLength="109" x="209.4465" y="915.792">«cloud service»</text><text fill="#000000" font-family="sans-serif" font-size="14" lengthAdjust="spacing" textLength="133" x="197.4465" y="932.0889">Azure Blob Storage</text></g><!--MD5=[8fc3522a43f8c7199df5e09e5bb0188e]
entity user--><g id="elem_user"><ellipse cx="263.9465" cy="52.3321" fill="#F1F1F1" rx="9.0352" ry="9.0352" style="stroke:#181818;stroke-width:0.5;"/><rect fill="#F1F1F1" height="36.2969" rx="9.0352" ry="9.0352" style="stroke:#181818;stroke-width:0.5;" width="51" x="238.4465" y="61.3673"/><text fill="#000000" font-family="sans-serif" font-size="14" lengthAdjust="spacing" textLength="31" x="248.4465" y="84.3624">user</text></g><!--MD5=[ffbc213024f147ed60abfb8142da1314]
link user to phone--><g id="link_user_phone"><path d="M263.9465,97.4569 C263.9465,105.0169 263.9465,113.8934 263.9465,123.6481 C263.9465,128.5254 263.9465,133.6223 263.9465,138.8839 C263.9465,141.5147 263.9465,144.1866 263.9465,146.8929 C263.9465,148.2461 263.9465,149.6078 263.9465,150.9773 C263.9465,151.3196 263.9465,151.6625 263.9465,152.0058 " fill="none" id="user-to-phone" style="stroke:#181818;stroke-width:1.0;"/><polygon fill="#181818" points="263.9465,152.0058,267.9465,143.0058,263.9465,147.0058,259.9465,143.0058,263.9465,152.0058" style="stroke:#181818;stroke-width:1.0;"/></g><!--MD5=[b51998d7ae062861a075072140914fe6]
link phone to AppService--><g id="link_phone_AppService"><path d="M263.9465,385.7913 C263.9465,388.0787 263.9465,390.3995 263.9465,392.7512 C263.9465,402.1581 263.9465,412.0596 263.9465,422.2909 C263.9465,427.4065 263.9465,432.6045 263.9465,437.8644 C263.9465,440.4943 263.9465,443.1397 263.9465,445.798 C263.9465,446.4626 263.9465,447.1279 263.9465,447.7941 C263.9465,448.1271 263.9465,448.4604 263.9465,448.7938 C263.9465,448.9606 263.9465,449.1273 263.9465,449.2941 " fill="none" id="phone-AppService" style="stroke:#181818;stroke-width:1.0;"/><text fill="#000000" font-family="sans-serif" font-size="13" lengthAdjust="spacing" textLength="32" x="264.9465" y="421.3638">HTTP</text></g><!--MD5=[9cf6a75db92d0836724e3d1e33493a94]
link AppService to OCR--><g id="link_AppService_OCR"><path d="M255.8458,676.3218 C255.7218,676.4904 255.5966,676.6608 255.47,676.8328 C254.4579,678.2094 253.3648,679.6961 252.196,681.2857 C249.8583,684.4651 247.2178,688.0564 244.3168,692.002 C232.7127,707.7847 216.9402,729.2375 199.7065,752.6781 C165.239,799.5594 124.9265,854.3919 100.4265,887.7169 " fill="none" id="AppService-OCR" style="stroke:#181818;stroke-width:1.0;"/><text fill="#000000" font-family="sans-serif" font-size="13" lengthAdjust="spacing" textLength="32" x="171.9465" y="801.3638">HTTP</text></g><!--MD5=[c177ac3482a88252b07c4cdc45200531]
link AppService to storage--><g id="link_AppService_storage"><path d="M263.9465,764.9222 C263.9465,765.2974 263.9465,765.673 263.9465,766.0489 C263.9465,767.5524 263.9465,769.061 263.9465,770.5738 C263.9465,776.6249 263.9465,782.7427 263.9465,788.8696 C263.9465,801.1236 263.9465,813.4141 263.9465,825.2811 C263.9465,849.015 263.9465,871.0544 263.9465,887.7169 " fill="none" id="AppService-storage" style="stroke:#181818;stroke-width:1.0;"/><text fill="#000000" font-family="sans-serif" font-size="13" lengthAdjust="spacing" textLength="32" x="264.9465" y="801.3638">HTTP</text></g><!--MD5=[8968161996640db401522c967a841136]
link AppService to cosmosdb--><g id="link_AppService_cosmosdb"><path d="M313.3322,764.3659 C313.4606,764.5565 313.5891,764.7469 313.7178,764.9371 C314.2326,765.6978 314.7504,766.4551 315.2711,767.2086 C316.3124,768.7158 317.3654,770.208 318.4297,771.6827 C320.5581,774.6319 322.7315,777.5106 324.9465,780.2969 C338.8665,797.8069 351.9765,793.8069 362.9465,813.2969 C365.804,818.3731 368.2309,823.7898 370.2898,829.3864 C370.8045,830.7855 371.2963,832.1959 371.766,833.615 C372.0009,834.3246 372.2302,835.0363 372.4542,835.7499 C372.5662,836.1067 372.6768,836.464 372.7861,836.8217 " fill="none" id="AppService-cosmosdb" style="stroke:#181818;stroke-width:1.0;"/><text fill="#000000" font-family="sans-serif" font-size="13" lengthAdjust="spacing" textLength="32" x="356.9465" y="801.3638">HTTP</text></g><!--MD5=[c385db4caee7649f3409be7049576566]
@startuml
title Deployment Diagram

node Smartphone <<device>> as phone {
    node "Expo Go" <<container>> as expo {
        artifact "Logbook App" <<artifact>> as app
    }
}

cloud "Azure OCR" <<cloud service>> as OCR

cloud "Azure App Service" <<cloud service>> as AppService {
    node "Docker" <<container>> {
        node "Node: Express" <<server>> as server{
        artifact " Handling Service" <<artifact>> as service
    }
 }
}


cloud "Azure Blob Storage" <<cloud service>> as storage

cloud "Azure CosmosDB" <<cloud service>> as cosmosdb {
    database "MongoDB" <<database>> as database 
}
    

person user

user - -> phone
phone - - AppService : HTTP
AppService - - OCR : HTTP
AppService - - storage : HTTP
AppService - - cosmosdb : HTTP 


@enduml

PlantUML version 1.2022.7(Mon Aug 22 19:01:30 CEST 2022)
(GPL source distribution)
Java Runtime: OpenJDK Runtime Environment
JVM: OpenJDK 64-Bit Server VM
Default Encoding: UTF-8
Language: en
Country: US
--></g></svg>