<?xml version="1.0" encoding="UTF-8" standalone="no"?><svg xmlns="http://www.w3.org/2000/svg" xmlns:xlink="http://www.w3.org/1999/xlink" contentStyleType="text/css" height="943px" preserveAspectRatio="none" style="width:849px;height:943px;background:#FFFFFF;" version="1.1" viewBox="0 0 849 943" width="849px" zoomAndPan="magnify"><defs/><g><rect fill="none" height="26.2969" id="_title" style="stroke:none;stroke-width:1.0;" width="178" x="328.5" y="5"/><text fill="#000000" font-family="sans-serif" font-size="14" font-weight="bold" lengthAdjust="spacing" textLength="168" x="333.5" y="22.9951">Layered Architecture</text><!--MD5=[8e845ed4d3a1f1a524ce12e1db2f5149]
cluster PUI--><g id="cluster_PUI"><rect fill="none" height="146" rx="2.5" ry="2.5" style="stroke:#181818;stroke-width:1.0;" width="658" x="179" y="44.2969"/><text fill="#000000" font-family="sans-serif" font-size="14" font-weight="bold" lengthAdjust="spacing" textLength="5" x="433" y="59.292"> </text><text fill="#000000" font-family="sans-serif" font-size="14" font-weight="bold" lengthAdjust="spacing" textLength="150" x="433" y="75.5889">Presentation Layer</text></g><!--MD5=[99eba6e841e10f0e903161ac505afb50]
cluster A--><g id="cluster_A"><rect fill="none" height="146" rx="2.5" ry="2.5" style="stroke:#181818;stroke-width:1.0;" width="628" x="179" y="230.2969"/><text fill="#000000" font-family="sans-serif" font-size="14" font-weight="bold" lengthAdjust="spacing" textLength="5" x="425" y="245.292"> </text><text fill="#000000" font-family="sans-serif" font-size="14" font-weight="bold" lengthAdjust="spacing" textLength="136" x="425" y="261.5889">Application Layer</text></g><!--MD5=[f6e6e24a8096a8e61f901e9be08ab5fd]
cluster D--><g id="cluster_D"><rect fill="none" height="130" rx="2.5" ry="2.5" style="stroke:#181818;stroke-width:1.0;" width="564" x="279" y="408.2969"/><text fill="#000000" font-family="sans-serif" font-size="14" font-weight="bold" lengthAdjust="spacing" textLength="5" x="507.5" y="423.292"> </text><text fill="#000000" font-family="sans-serif" font-size="14" font-weight="bold" lengthAdjust="spacing" textLength="107" x="507.5" y="439.5889">Domain Layer</text></g><!--MD5=[ab4376919c0c48ac6244b94af79c3d81]
cluster P--><g id="cluster_P"><rect fill="none" height="375" rx="2.5" ry="2.5" style="stroke:#181818;stroke-width:1.0;" width="170" x="452" y="562.2969"/><text fill="#000000" font-family="sans-serif" font-size="14" font-weight="bold" lengthAdjust="spacing" textLength="5" x="466" y="577.292"> </text><text fill="#000000" font-family="sans-serif" font-size="14" font-weight="bold" lengthAdjust="spacing" textLength="142" x="466" y="593.5889">Persistance Layer</text></g><!--MD5=[4e3ea98eaebe44b58f6d00ef2792bdcf]
entity ui1--><g id="elem_ui1"><rect fill="#F1F1F1" height="62.5938" rx="2.5" ry="2.5" style="stroke:#181818;stroke-width:0.5;" width="155" x="657.5" y="103.2969"/><rect fill="#F1F1F1" height="10" style="stroke:#181818;stroke-width:0.5;" width="15" x="792.5" y="108.2969"/><rect fill="#F1F1F1" height="2" style="stroke:#181818;stroke-width:0.5;" width="4" x="790.5" y="110.2969"/><rect fill="#F1F1F1" height="2" style="stroke:#181818;stroke-width:0.5;" width="4" x="790.5" y="114.2969"/><text fill="#000000" font-family="sans-serif" font-size="14" font-style="italic" lengthAdjust="spacing" textLength="98" x="681" y="136.292">«component»</text><text fill="#000000" font-family="sans-serif" font-size="14" lengthAdjust="spacing" textLength="115" x="672.5" y="152.5889">Overview Screen</text></g><!--MD5=[60a9e707a68d26d1e9d580c46e983260]
entity ui2--><g id="elem_ui2"><rect fill="#F1F1F1" height="62.5938" rx="2.5" ry="2.5" style="stroke:#181818;stroke-width:0.5;" width="150" x="472" y="103.2969"/><rect fill="#F1F1F1" height="10" style="stroke:#181818;stroke-width:0.5;" width="15" x="602" y="108.2969"/><rect fill="#F1F1F1" height="2" style="stroke:#181818;stroke-width:0.5;" width="4" x="600" y="110.2969"/><rect fill="#F1F1F1" height="2" style="stroke:#181818;stroke-width:0.5;" width="4" x="600" y="114.2969"/><text fill="#000000" font-family="sans-serif" font-size="14" font-style="italic" lengthAdjust="spacing" textLength="98" x="493" y="136.292">«component»</text><text fill="#000000" font-family="sans-serif" font-size="14" lengthAdjust="spacing" textLength="110" x="487" y="152.5889">Settings Screen</text></g><!--MD5=[4e9f9dca418302fcdb8ac73fa55fca1e]
entity ui3--><g id="elem_ui3"><rect fill="#F1F1F1" height="62.5938" rx="2.5" ry="2.5" style="stroke:#181818;stroke-width:0.5;" width="146" x="291" y="103.2969"/><rect fill="#F1F1F1" height="10" style="stroke:#181818;stroke-width:0.5;" width="15" x="417" y="108.2969"/><rect fill="#F1F1F1" height="2" style="stroke:#181818;stroke-width:0.5;" width="4" x="415" y="110.2969"/><rect fill="#F1F1F1" height="2" style="stroke:#181818;stroke-width:0.5;" width="4" x="415" y="114.2969"/><text fill="#000000" font-family="sans-serif" font-size="14" font-style="italic" lengthAdjust="spacing" textLength="98" x="310" y="136.292">«component»</text><text fill="#000000" font-family="sans-serif" font-size="14" lengthAdjust="spacing" textLength="106" x="306" y="152.5889">Camera Screen</text></g><g id="elem_n1"><path d="M222.5,122.2969 L222.5,147.4297 L255.5,147.4297 L255.5,132.2969 L245.5,122.2969 L222.5,122.2969 " fill="#FEFFDD" style="stroke:#181818;stroke-width:0.5;"/><path d="M245.5,122.2969 L245.5,132.2969 L255.5,132.2969 L245.5,122.2969 " fill="#FEFFDD" style="stroke:#181818;stroke-width:1.0;"/><text fill="#000000" font-family="sans-serif" font-size="13" lengthAdjust="spacing" textLength="12" x="228.5" y="139.3638">...</text></g><!--MD5=[9f289ca539b650134df838be30977bdf]
entity comp1--><g id="elem_comp1"><rect fill="#F1F1F1" height="62.5938" rx="2.5" ry="2.5" style="stroke:#181818;stroke-width:0.5;" width="138" x="645" y="289.2969"/><rect fill="#F1F1F1" height="10" style="stroke:#181818;stroke-width:0.5;" width="15" x="763" y="294.2969"/><rect fill="#F1F1F1" height="2" style="stroke:#181818;stroke-width:0.5;" width="4" x="761" y="296.2969"/><rect fill="#F1F1F1" height="2" style="stroke:#181818;stroke-width:0.5;" width="4" x="761" y="300.2969"/><text fill="#000000" font-family="sans-serif" font-size="14" font-style="italic" lengthAdjust="spacing" textLength="98" x="660" y="322.292">«component»</text><text fill="#000000" font-family="sans-serif" font-size="14" lengthAdjust="spacing" textLength="32" x="693" y="338.5889">Card</text></g><!--MD5=[9ce2ef9ab72501d0b0a005ad96e63d6d]
entity comp2--><g id="elem_comp2"><rect fill="#F1F1F1" height="62.5938" rx="2.5" ry="2.5" style="stroke:#181818;stroke-width:0.5;" width="138" x="472" y="289.2969"/><rect fill="#F1F1F1" height="10" style="stroke:#181818;stroke-width:0.5;" width="15" x="590" y="294.2969"/><rect fill="#F1F1F1" height="2" style="stroke:#181818;stroke-width:0.5;" width="4" x="588" y="296.2969"/><rect fill="#F1F1F1" height="2" style="stroke:#181818;stroke-width:0.5;" width="4" x="588" y="300.2969"/><text fill="#000000" font-family="sans-serif" font-size="14" font-style="italic" lengthAdjust="spacing" textLength="98" x="487" y="322.292">«component»</text><text fill="#000000" font-family="sans-serif" font-size="14" lengthAdjust="spacing" textLength="49" x="511.5" y="338.5889">Appbar</text></g><!--MD5=[b0987787102391d442837cbcbe544d9b]
entity comp3--><g id="elem_comp3"><rect fill="#F1F1F1" height="62.5938" rx="2.5" ry="2.5" style="stroke:#181818;stroke-width:0.5;" width="146" x="291" y="289.2969"/><rect fill="#F1F1F1" height="10" style="stroke:#181818;stroke-width:0.5;" width="15" x="417" y="294.2969"/><rect fill="#F1F1F1" height="2" style="stroke:#181818;stroke-width:0.5;" width="4" x="415" y="296.2969"/><rect fill="#F1F1F1" height="2" style="stroke:#181818;stroke-width:0.5;" width="4" x="415" y="300.2969"/><text fill="#000000" font-family="sans-serif" font-size="14" font-style="italic" lengthAdjust="spacing" textLength="98" x="310" y="322.292">«component»</text><text fill="#000000" font-family="sans-serif" font-size="14" lengthAdjust="spacing" textLength="106" x="306" y="338.5889">Camera Trigger</text></g><g id="elem_n2"><path d="M222.5,308.2969 L222.5,333.4297 L255.5,333.4297 L255.5,318.2969 L245.5,308.2969 L222.5,308.2969 " fill="#FEFFDD" style="stroke:#181818;stroke-width:0.5;"/><path d="M245.5,308.2969 L245.5,318.2969 L255.5,318.2969 L245.5,308.2969 " fill="#FEFFDD" style="stroke:#181818;stroke-width:1.0;"/><text fill="#000000" font-family="sans-serif" font-size="13" lengthAdjust="spacing" textLength="12" x="228.5" y="325.3638">...</text></g><!--MD5=[f0a7c378ecae3c3cfec31c1367ce250c]
entity asc--><g id="elem_asc"><rect fill="#F1F1F1" height="62.5938" rx="2.5" ry="2.5" style="stroke:#181818;stroke-width:0.5;" width="186" x="641" y="459.2969"/><rect fill="#F1F1F1" height="10" style="stroke:#181818;stroke-width:0.5;" width="15" x="807" y="464.2969"/><rect fill="#F1F1F1" height="2" style="stroke:#181818;stroke-width:0.5;" width="4" x="805" y="466.2969"/><rect fill="#F1F1F1" height="2" style="stroke:#181818;stroke-width:0.5;" width="4" x="805" y="470.2969"/><text fill="#000000" font-family="sans-serif" font-size="14" font-style="italic" lengthAdjust="spacing" textLength="98" x="680" y="492.292">«component»</text><text fill="#000000" font-family="sans-serif" font-size="14" lengthAdjust="spacing" textLength="146" x="656" y="508.5889">App Settings Context</text></g><!--MD5=[0dc3a655c088fd6165ba4a37cb8fe693]
entity tc--><g id="elem_tc"><rect fill="#F1F1F1" height="62.5938" rx="2.5" ry="2.5" style="stroke:#181818;stroke-width:0.5;" width="138" x="468" y="459.2969"/><rect fill="#F1F1F1" height="10" style="stroke:#181818;stroke-width:0.5;" width="15" x="586" y="464.2969"/><rect fill="#F1F1F1" height="2" style="stroke:#181818;stroke-width:0.5;" width="4" x="584" y="466.2969"/><rect fill="#F1F1F1" height="2" style="stroke:#181818;stroke-width:0.5;" width="4" x="584" y="470.2969"/><text fill="#000000" font-family="sans-serif" font-size="14" font-style="italic" lengthAdjust="spacing" textLength="98" x="483" y="492.292">«component»</text><text fill="#000000" font-family="sans-serif" font-size="14" lengthAdjust="spacing" textLength="84" x="490" y="508.5889">Trip Context</text></g><!--MD5=[3a45786a43c258a5cec52944ed422cce]
entity uc--><g id="elem_uc"><rect fill="#F1F1F1" height="62.5938" rx="2.5" ry="2.5" style="stroke:#181818;stroke-width:0.5;" width="138" x="295" y="459.2969"/><rect fill="#F1F1F1" height="10" style="stroke:#181818;stroke-width:0.5;" width="15" x="413" y="464.2969"/><rect fill="#F1F1F1" height="2" style="stroke:#181818;stroke-width:0.5;" width="4" x="411" y="466.2969"/><rect fill="#F1F1F1" height="2" style="stroke:#181818;stroke-width:0.5;" width="4" x="411" y="470.2969"/><text fill="#000000" font-family="sans-serif" font-size="14" font-style="italic" lengthAdjust="spacing" textLength="98" x="310" y="492.292">«component»</text><text fill="#000000" font-family="sans-serif" font-size="14" lengthAdjust="spacing" textLength="90" x="314" y="508.5889">User Context</text></g><!--MD5=[76aeba0ab875879ea5d21554d0007a3a]
entity model--><g id="elem_model"><rect fill="#F1F1F1" height="62.5938" rx="2.5" ry="2.5" style="stroke:#181818;stroke-width:0.5;" width="138" x="468" y="613.2969"/><rect fill="#F1F1F1" height="10" style="stroke:#181818;stroke-width:0.5;" width="15" x="586" y="618.2969"/><rect fill="#F1F1F1" height="2" style="stroke:#181818;stroke-width:0.5;" width="4" x="584" y="620.2969"/><rect fill="#F1F1F1" height="2" style="stroke:#181818;stroke-width:0.5;" width="4" x="584" y="624.2969"/><text fill="#000000" font-family="sans-serif" font-size="14" font-style="italic" lengthAdjust="spacing" textLength="98" x="483" y="646.292">«component»</text><text fill="#000000" font-family="sans-serif" font-size="14" lengthAdjust="spacing" textLength="43" x="510.5" y="662.5889">model</text></g><!--MD5=[a5a6ae0ba01c8a4589ab26bd33e87aad]
entity storage--><g id="elem_storage"><rect fill="#F1F1F1" height="62.5938" rx="2.5" ry="2.5" style="stroke:#181818;stroke-width:0.5;" width="138" x="468" y="736.2969"/><rect fill="#F1F1F1" height="10" style="stroke:#181818;stroke-width:0.5;" width="15" x="586" y="741.2969"/><rect fill="#F1F1F1" height="2" style="stroke:#181818;stroke-width:0.5;" width="4" x="584" y="743.2969"/><rect fill="#F1F1F1" height="2" style="stroke:#181818;stroke-width:0.5;" width="4" x="584" y="747.2969"/><text fill="#000000" font-family="sans-serif" font-size="14" font-style="italic" lengthAdjust="spacing" textLength="98" x="483" y="769.292">«component»</text><text fill="#000000" font-family="sans-serif" font-size="14" lengthAdjust="spacing" textLength="97" x="483.5" y="785.5889">async storage</text></g><!--MD5=[7468467f3b6b392f1d176d828c753b77]
entity db--><g id="elem_db"><path d="M477.5,869.2969 C477.5,859.2969 537,859.2969 537,859.2969 C537,859.2969 596.5,859.2969 596.5,869.2969 L596.5,910.8906 C596.5,920.8906 537,920.8906 537,920.8906 C537,920.8906 477.5,920.8906 477.5,910.8906 L477.5,869.2969 " fill="#F1F1F1" style="stroke:#181818;stroke-width:0.5;"/><path d="M477.5,869.2969 C477.5,879.2969 537,879.2969 537,879.2969 C537,879.2969 596.5,879.2969 596.5,869.2969 " fill="none" style="stroke:#181818;stroke-width:0.5;"/><text fill="#000000" font-family="sans-serif" font-size="14" font-style="italic" lengthAdjust="spacing" textLength="81" x="496.5" y="896.292">«database»</text><text fill="#000000" font-family="sans-serif" font-size="14" lengthAdjust="spacing" textLength="99" x="487.5" y="912.5889">local database</text></g><g id="elem_comment"><path d="M6,107.2969 L6,162.6953 L152,162.6953 L152,117.2969 L142,107.2969 L6,107.2969 " fill="#FEFFDD" style="stroke:#181818;stroke-width:0.5;"/><path d="M142,107.2969 L142,117.2969 L152,117.2969 L142,107.2969 " fill="#FEFFDD" style="stroke:#181818;stroke-width:1.0;"/><text fill="#000000" font-family="sans-serif" font-size="13" lengthAdjust="spacing" textLength="103" x="12" y="124.3638">And many more</text><text fill="#000000" font-family="sans-serif" font-size="13" lengthAdjust="spacing" textLength="121" x="12" y="139.4966">only a few selected</text><text fill="#000000" font-family="sans-serif" font-size="13" lengthAdjust="spacing" textLength="99" x="12" y="154.6294">for illustration...</text></g><!--MD5=[e13afc507c91ad01245516de6a4cebbd]
link ui1 to comp1--><g id="link_ui1_comp1"><path d="M731.49,166.5969 C727.6,200.6669 721.37,255.2169 717.49,289.2069 " fill="none" id="ui1-comp1" style="stroke:#181818;stroke-width:1.0;"/></g><!--MD5=[0b789537218e1314f90d1ba93870131d]
link ui2 to comp2--><g id="link_ui2_comp2"><path d="M546,166.5969 C544.88,200.6669 543.11,255.2169 542,289.2069 " fill="none" id="ui2-comp2" style="stroke:#181818;stroke-width:1.0;"/></g><!--MD5=[2891112710c367d417cf68a835a93681]
link ui3 to comp3--><g id="link_ui3_comp3"><path d="M364,166.5969 C364,200.6669 364,255.2169 364,289.2069 " fill="none" id="ui3-comp3" style="stroke:#181818;stroke-width:1.0;"/></g><!--MD5=[5a1747e5ebf8cafcbafd96d6d8550f81]
link comment to A--><g id="link_comment_A"><path d="M94.7,162.5569 C109.445,187.6719 132.035,226.1544 151.175,258.7619 C160.745,275.0656 169.4525,289.9006 175.8856,300.8616 C176.6898,302.2317 177.4584,303.5413 178.1887,304.7856 C178.3713,305.0967 178.5514,305.4037 178.7292,305.7066 C178.8181,305.858 178.9063,306.0084 178.994,306.1578 " fill="none" id="comment-A" style="stroke:#181818;stroke-width:1.0;"/></g><!--MD5=[09d6e43ffb6107297eab7848bd1e78f1]
link comment to PUI--><g id="link_comment_PUI"><path d="M152.41,134.7969 C158.085,134.7969 163.76,134.7969 169.435,134.7969 C172.2725,134.7969 175.11,134.7969 177.9475,134.7969 C178.1248,134.7969 178.3022,134.7969 178.4795,134.7969 C178.5682,134.7969 178.6569,134.7969 178.7455,134.7969 C178.7899,134.7969 178.8342,134.7969 178.8786,134.7969 " fill="none" id="comment-PUI" style="stroke:#181818;stroke-width:1.0;"/></g><!--MD5=[ebd6984a3155bd8f6b06a242e42e42eb]
link comp1 to asc--><g id="link_comp1_asc"><path d="M717.67,352.6069 C721.28,382.9269 726.75,428.9369 730.35,459.1769 " fill="none" id="comp1-asc" style="stroke:#181818;stroke-width:1.0;"/><path d="M730.2001,398.0651 A10,10 0 0 0 716.1569 399.7356" fill="none" style="stroke:#181818;stroke-width:1.5;"/><ellipse cx="724.0138" cy="405.9219" fill="#FFFFFF" rx="6" ry="6" style="stroke:#181818;stroke-width:1.5;"/></g><!--MD5=[71f00a6bf47e2c67a0815c96c5f97d62]
link comp2 to tc--><g id="link_comp2_tc"><path d="M540.27,352.6069 C539.54,382.9269 538.45,428.9369 537.73,459.1769 " fill="none" id="comp2-tc" style="stroke:#181818;stroke-width:1.0;"/><path d="M546.2335,399.021 A10,10 0 0 0 532.0954 398.6846" fill="none" style="stroke:#181818;stroke-width:1.5;"/><ellipse cx="538.9963" cy="405.9219" fill="#FFFFFF" rx="6" ry="6" style="stroke:#181818;stroke-width:1.5;"/></g><!--MD5=[579260a76cac78421f05660dd2792149]
link comp3 to uc--><g id="link_comp3_uc"><path d="M364,352.6069 C364,382.9269 364,428.9369 364,459.1769 " fill="none" id="comp3-uc" style="stroke:#181818;stroke-width:1.0;"/><path d="M371.0711,398.8508 A10,10 0 0 0 356.9289 398.8508" fill="none" style="stroke:#181818;stroke-width:1.5;"/><ellipse cx="364" cy="405.9219" fill="#FFFFFF" rx="6" ry="6" style="stroke:#181818;stroke-width:1.5;"/></g><!--MD5=[6c11efa79a59b019721c38288be3a978]
link asc to model--><g id="link_asc_model"><path d="M694.13,522.5569 C659.96,548.9269 610.97,586.7269 576.81,613.0869 " fill="none" id="asc-model" style="stroke:#181818;stroke-width:1.0;"/><path d="M645.3842,569.1041 A10,10 0 0 0 636.7447 557.9077" fill="none" style="stroke:#181818;stroke-width:1.5;"/><ellipse cx="635.4663" cy="567.8256" fill="#FFFFFF" rx="6" ry="6" style="stroke:#181818;stroke-width:1.5;"/></g><!--MD5=[03b3944c4c4381cade37717b562cd909]
link tc to model--><g id="link_tc_model"><path d="M537,522.5569 C537,548.9269 537,586.7269 537,613.0869 " fill="none" id="tc-model" style="stroke:#181818;stroke-width:1.0;"/><path d="M544.0711,560.7546 A10,10 0 0 0 529.9289 560.7546" fill="none" style="stroke:#181818;stroke-width:1.5;"/><ellipse cx="537" cy="567.8256" fill="#FFFFFF" rx="6" ry="6" style="stroke:#181818;stroke-width:1.5;"/></g><!--MD5=[c2074426699b297774293cb1bdf0f988]
link uc to model--><g id="link_uc_model"><path d="M399.01,522.5569 C429.02,548.9269 472.04,586.7269 502.04,613.0869 " fill="none" id="uc-model" style="stroke:#181818;stroke-width:1.0;"/><path d="M449.8843,557.8464 A10,10 0 0 0 440.5495 568.4701" fill="none" style="stroke:#181818;stroke-width:1.5;"/><ellipse cx="450.5287" cy="567.8256" fill="#FFFFFF" rx="6" ry="6" style="stroke:#181818;stroke-width:1.5;"/></g><!--MD5=[fb2548501d3cd9aed2d63c140fef0e84]
link model to storage--><g id="link_model_storage"><path d="M537,676.3269 C537,694.6769 537,717.9369 537,736.2769 " fill="none" id="model-storage" style="stroke:#181818;stroke-width:1.0;"/><path d="M544.0711,699.2346 A10,10 0 0 0 529.9289 699.2346" fill="none" style="stroke:#181818;stroke-width:1.5;"/><ellipse cx="537" cy="706.3056" fill="#FFFFFF" rx="6" ry="6" style="stroke:#181818;stroke-width:1.5;"/></g><!--MD5=[42418f9f9ad793f1e9ae119d1c5dae05]
link storage to db--><g id="link_storage_db"><path d="M537,799.5169 C537,817.7869 537,840.8669 537,859.0469 " fill="none" id="storage-db" style="stroke:#181818;stroke-width:1.0;"/></g><!--MD5=[e5f739036bea2bd5f0381d78cc4a86fd]
@startuml


Title Layered Architecture


rectangle "\lPresentation Layer" as PUI {
    component "Overview Screen" <<component>> as ui1
    component "Settings Screen" <<component>> as ui2
    component "Camera Screen" <<component>> as ui3
    note "..." as n1
}

rectangle "\lApplication Layer" as A {
    component "Card" <<component>> as comp1
    component "Appbar" <<component>> as comp2
    component "Camera Trigger" <<component>> as comp3 
    note "..." as n2
}
note "And many more \nonly a few selected \nfor illustration..." as comment 

rectangle "\lDomain Layer" as D {
    component "App Settings Context" <<component>> as asc
    component "Trip Context" <<component>>  as tc
    component "User Context" <<component>>  as uc
}

rectangle "\lPersistance Layer" as P {
    component "model" <<component>> as model
    component "async storage" <<component>> as storage
    database "local database" <<database>> as db
}

ui1 - - comp1
ui2 - - comp2
ui3 - - comp3

comment -r- A
comment -r- PUI

comp1 -(0- asc
comp2 -(0- tc
comp3 -(0- uc

asc -(0- model
tc -(0- model
uc -(0- model

model -(0- storage
storage - - db

@enduml

PlantUML version 1.2022.7(Mon Aug 22 19:01:30 CEST 2022)
(GPL source distribution)
Java Runtime: OpenJDK Runtime Environment
JVM: OpenJDK 64-Bit Server VM
Default Encoding: UTF-8
Language: en
Country: US
--></g></svg>